%TF.GenerationSoftware,KiCad,Pcbnew,7.0.11+dfsg-1build4*%
%TF.CreationDate,2026-03-31T18:10:33-06:00*%
%TF.ProjectId,digital_clock,64696769-7461-46c5-9f63-6c6f636b2e6b,rev?*%
%TF.SameCoordinates,Original*%
%TF.FileFunction,Copper,L1,Top*%
%TF.FilePolarity,Positive*%
%FSLAX46Y46*%
G04 Gerber Fmt 4.6, Leading zero omitted, Abs format (unit mm)*
G04 Created by KiCad (PCBNEW 7.0.11+dfsg-1build4) date 2026-03-31 18:10:33*
%MOMM*%
%LPD*%
G01*
G04 APERTURE LIST*
G04 Aperture macros list*
%AMRoundRect*
0 Rectangle with rounded corners*
0 $1 Rounding radius*
0 $2 $3 $4 $5 $6 $7 $8 $9 X,Y pos of 4 corners*
0 Add a 4 corners polygon primitive as box body*
4,1,4,$2,$3,$4,$5,$6,$7,$8,$9,$2,$3,0*
0 Add four circle primitives for the rounded corners*
1,1,$1+$1,$2,$3*
1,1,$1+$1,$4,$5*
1,1,$1+$1,$6,$7*
1,1,$1+$1,$8,$9*
0 Add four rect primitives between the rounded corners*
20,1,$1+$1,$2,$3,$4,$5,0*
20,1,$1+$1,$4,$5,$6,$7,0*
20,1,$1+$1,$6,$7,$8,$9,0*
20,1,$1+$1,$8,$9,$2,$3,0*%
G04 Aperture macros list end*
%TA.AperFunction,ComponentPad*%
%ADD10C,2.000000*%
%TD*%
%TA.AperFunction,ComponentPad*%
%ADD11R,1.600000X1.600000*%
%TD*%
%TA.AperFunction,ComponentPad*%
%ADD12C,1.600000*%
%TD*%
%TA.AperFunction,ComponentPad*%
%ADD13O,1.600000X1.600000*%
%TD*%
%TA.AperFunction,ComponentPad*%
%ADD14R,1.700000X1.700000*%
%TD*%
%TA.AperFunction,ComponentPad*%
%ADD15O,1.700000X1.700000*%
%TD*%
%TA.AperFunction,ComponentPad*%
%ADD16C,1.500000*%
%TD*%
%TA.AperFunction,ComponentPad*%
%ADD17O,1.050000X1.500000*%
%TD*%
%TA.AperFunction,ComponentPad*%
%ADD18R,1.050000X1.500000*%
%TD*%
%TA.AperFunction,ComponentPad*%
%ADD19RoundRect,0.250000X1.550000X-0.650000X1.550000X0.650000X-1.550000X0.650000X-1.550000X-0.650000X0*%
%TD*%
%TA.AperFunction,ComponentPad*%
%ADD20O,3.600000X1.800000*%
%TD*%
%TA.AperFunction,Conductor*%
%ADD21C,0.250000*%
%TD*%
G04 APERTURE END LIST*
D10*
%TO.P,SW2,1,1*%
%TO.N,GND*%
X76125000Y-95540000D03*
X82625000Y-95540000D03*
%TO.P,SW2,2,2*%
%TO.N,/RB0*%
X76125000Y-100040000D03*
X82625000Y-100040000D03*
%TD*%
D11*
%TO.P,U2,1,E*%
%TO.N,/E*%
X71120000Y-72267500D03*
D12*
%TO.P,U2,2,D*%
%TO.N,/D*%
X73660000Y-72267500D03*
%TO.P,U2,3,CC*%
%TO.N,unconnected-(U2-CC-Pad3)*%
X76200000Y-72267500D03*
%TO.P,U2,4,C*%
%TO.N,/C*%
X78740000Y-72267500D03*
%TO.P,U2,5,DP*%
%TO.N,/DP*%
X81280000Y-72267500D03*
%TO.P,U2,6,B*%
%TO.N,/B*%
X81280000Y-57027500D03*
%TO.P,U2,7,A*%
%TO.N,/A*%
X78740000Y-57027500D03*
%TO.P,U2,8,CC*%
%TO.N,/D1C*%
X76200000Y-57027500D03*
%TO.P,U2,9,F*%
%TO.N,/F*%
X73660000Y-57027500D03*
%TO.P,U2,10,G*%
%TO.N,/G*%
X71120000Y-57027500D03*
%TD*%
D11*
%TO.P,U1,1,Vpp/~{MCLR}/RE3*%
%TO.N,/MCLR*%
X35560000Y-50800000D03*
D13*
%TO.P,U1,2,RA0/AN0*%
%TO.N,unconnected-(U1-RA0{slash}AN0-Pad2)*%
X35560000Y-53340000D03*
%TO.P,U1,3,RA1/AN1*%
%TO.N,unconnected-(U1-RA1{slash}AN1-Pad3)*%
X35560000Y-55880000D03*
%TO.P,U1,4,RA2/AN2/Vref-/CVref*%
%TO.N,unconnected-(U1-RA2{slash}AN2{slash}Vref-{slash}CVref-Pad4)*%
X35560000Y-58420000D03*
%TO.P,U1,5,RA3/AN3/Vref+*%
%TO.N,unconnected-(U1-RA3{slash}AN3{slash}Vref+-Pad5)*%
X35560000Y-60960000D03*
%TO.P,U1,6,RA4/T0CKI/C1OUT/RCV*%
%TO.N,unconnected-(U1-RA4{slash}T0CKI{slash}C1OUT{slash}RCV-Pad6)*%
X35560000Y-63500000D03*
%TO.P,U1,7,RA5/AN4/~{SS}/HLVDIN/C2OUT*%
%TO.N,unconnected-(U1-RA5{slash}AN4{slash}~{SS}{slash}HLVDIN{slash}C2OUT-Pad7)*%
X35560000Y-66040000D03*
%TO.P,U1,8,CK1SPP/AN5/RE0*%
%TO.N,unconnected-(U1-CK1SPP{slash}AN5{slash}RE0-Pad8)*%
X35560000Y-68580000D03*
%TO.P,U1,9,CK2SPP/AN6/RE1*%
%TO.N,unconnected-(U1-CK2SPP{slash}AN6{slash}RE1-Pad9)*%
X35560000Y-71120000D03*
%TO.P,U1,10,OESPP/AN7/RE2*%
%TO.N,unconnected-(U1-OESPP{slash}AN7{slash}RE2-Pad10)*%
X35560000Y-73660000D03*
%TO.P,U1,11,VDD*%
%TO.N,VCC*%
X35560000Y-76200000D03*
%TO.P,U1,12,VSS*%
%TO.N,unconnected-(U1-VSS-Pad12)*%
X35560000Y-78740000D03*
%TO.P,U1,13,OSC1/CLKI*%
%TO.N,Net-(U1-OSC1{slash}CLKI)*%
X35560000Y-81280000D03*
%TO.P,U1,14,RA6/OSC2/CLKO*%
%TO.N,Net-(U1-RA6{slash}OSC2{slash}CLKO)*%
X35560000Y-83820000D03*
%TO.P,U1,15,T1OSO/T13CKI/RC0*%
%TO.N,unconnected-(U1-T1OSO{slash}T13CKI{slash}RC0-Pad15)*%
X35560000Y-86360000D03*
%TO.P,U1,16,~{UOE}/CCP2/T1OSI/RC1*%
%TO.N,unconnected-(U1-~{UOE}{slash}CCP2{slash}T1OSI{slash}RC1-Pad16)*%
X35560000Y-88900000D03*
%TO.P,U1,17,P1A/CCP1/RC2*%
%TO.N,unconnected-(U1-P1A{slash}CCP1{slash}RC2-Pad17)*%
X35560000Y-91440000D03*
%TO.P,U1,18,VUSB*%
%TO.N,unconnected-(U1-VUSB-Pad18)*%
X35560000Y-93980000D03*
%TO.P,U1,19,SPP0/RD0*%
%TO.N,/RD0*%
X35560000Y-96520000D03*
%TO.P,U1,20,SPP1/RD1*%
%TO.N,/RD1*%
X35560000Y-99060000D03*
%TO.P,U1,21,SPP2/RD2*%
%TO.N,/RD2*%
X50800000Y-99060000D03*
%TO.P,U1,22,SPP3/RD3*%
%TO.N,/RD3*%
X50800000Y-96520000D03*
%TO.P,U1,23,VM/D-/RC4*%
%TO.N,unconnected-(U1-VM{slash}D-{slash}RC4-Pad23)*%
X50800000Y-93980000D03*
%TO.P,U1,24,VP/D+/RC5*%
%TO.N,unconnected-(U1-VP{slash}D+{slash}RC5-Pad24)*%
X50800000Y-91440000D03*
%TO.P,U1,25,TX/CK/RC6*%
%TO.N,unconnected-(U1-TX{slash}CK{slash}RC6-Pad25)*%
X50800000Y-88900000D03*
%TO.P,U1,26,SDO/RX/DT/RC7*%
%TO.N,unconnected-(U1-SDO{slash}RX{slash}DT{slash}RC7-Pad26)*%
X50800000Y-86360000D03*
%TO.P,U1,27,SPP4/RD4*%
%TO.N,/RD4*%
X50800000Y-83820000D03*
%TO.P,U1,28,P1B/SPP5/RD5*%
%TO.N,/RD5*%
X50800000Y-81280000D03*
%TO.P,U1,29,P1C/SPP6/RD6*%
%TO.N,/RD6*%
X50800000Y-78740000D03*
%TO.P,U1,30,P1D/SPP7/RD7*%
%TO.N,/RD7*%
X50800000Y-76200000D03*
%TO.P,U1,31,VSS*%
%TO.N,GND*%
X50800000Y-73660000D03*
%TO.P,U1,32,VDD*%
%TO.N,unconnected-(U1-VDD-Pad32)*%
X50800000Y-71120000D03*
%TO.P,U1,33,RB0/AN12/INT0/FLT0/SDI/SDA*%
%TO.N,/RB0*%
X50800000Y-68580000D03*
%TO.P,U1,34,RB1/AN10/INT1/SCK/SCL*%
%TO.N,/RB1*%
X50800000Y-66040000D03*
%TO.P,U1,35,RB2/AN8/INT2/VMO*%
%TO.N,/RB2*%
X50800000Y-63500000D03*
%TO.P,U1,36,RB3/AN9/CCP2/VPO*%
%TO.N,unconnected-(U1-RB3{slash}AN9{slash}CCP2{slash}VPO-Pad36)*%
X50800000Y-60960000D03*
%TO.P,U1,37,RB4/AN11/KBI0/CSSPP*%
%TO.N,/RB4*%
X50800000Y-58420000D03*
%TO.P,U1,38,RB5/KBI1/PGM*%
%TO.N,/RB5*%
X50800000Y-55880000D03*
%TO.P,U1,39,RB6/KBI2/PGC*%
%TO.N,/PGC*%
X50800000Y-53340000D03*
%TO.P,U1,40,RB7/KBI3/PGD*%
%TO.N,/PGD*%
X50800000Y-50800000D03*
%TD*%
D14*
%TO.P,J1,1,Pin_1*%
%TO.N,/MCLR*%
X36830000Y-46355000D03*
D15*
%TO.P,J1,2,Pin_2*%
%TO.N,VCC*%
X39370000Y-46355000D03*
%TO.P,J1,3,Pin_3*%
%TO.N,GND*%
X41910000Y-46355000D03*
%TO.P,J1,4,Pin_4*%
%TO.N,/PGD*%
X44450000Y-46355000D03*
%TO.P,J1,5,Pin_5*%
%TO.N,/PGC*%
X46990000Y-46355000D03*
%TO.P,J1,6,Pin_6*%
%TO.N,unconnected-(J1-Pin_6-Pad6)*%
X49530000Y-46355000D03*
%TD*%
D13*
%TO.P,R8,2*%
%TO.N,/RD1*%
X55745000Y-105262500D03*
D12*
%TO.P,R8,1*%
%TO.N,/B*%
X63365000Y-105262500D03*
%TD*%
%TO.P,R1,1*%
%TO.N,/PGC*%
X53975000Y-53340000D03*
D13*
%TO.P,R1,2*%
%TO.N,/RB6*%
X61595000Y-53340000D03*
%TD*%
D10*
%TO.P,SW1,1,1*%
%TO.N,/MCLR*%
X28015000Y-56225000D03*
X21515000Y-56225000D03*
%TO.P,SW1,2,2*%
%TO.N,GND*%
X28015000Y-51725000D03*
X21515000Y-51725000D03*
%TD*%
D12*
%TO.P,R5,1*%
%TO.N,/RB1*%
X99560000Y-104627500D03*
D13*
%TO.P,R5,2*%
%TO.N,VCC*%
X91940000Y-104627500D03*
%TD*%
D12*
%TO.P,R7,1*%
%TO.N,/A*%
X63365000Y-102087500D03*
D13*
%TO.P,R7,2*%
%TO.N,/RD0*%
X55745000Y-102087500D03*
%TD*%
D12*
%TO.P,R9,1*%
%TO.N,/C*%
X63365000Y-98912500D03*
D13*
%TO.P,R9,2*%
%TO.N,/RD2*%
X55745000Y-98912500D03*
%TD*%
D12*
%TO.P,22uF1,1*%
%TO.N,Net-(U1-RA6{slash}OSC2{slash}CLKO)*%
X26535000Y-84942500D03*
%TO.P,22uF1,2*%
%TO.N,GND*%
X24035000Y-84942500D03*
%TD*%
D11*
%TO.P,U4,1,E*%
%TO.N,/B*%
X107950000Y-57272500D03*
D12*
%TO.P,U4,2,D*%
%TO.N,/A*%
X105410000Y-57272500D03*
%TO.P,U4,3,CC*%
%TO.N,/D3C*%
X102870000Y-57272500D03*
%TO.P,U4,4,C*%
%TO.N,/F*%
X100330000Y-57272500D03*
%TO.P,U4,5,DP*%
%TO.N,/DP*%
X97790000Y-57272500D03*
%TO.P,U4,6,B*%
%TO.N,/E*%
X97790000Y-72512500D03*
%TO.P,U4,7,A*%
%TO.N,/D*%
X100330000Y-72512500D03*
%TO.P,U4,8,CC*%
%TO.N,unconnected-(U4-CC-Pad8)*%
X102870000Y-72512500D03*
%TO.P,U4,9,F*%
%TO.N,/C*%
X105410000Y-72512500D03*
%TO.P,U4,10,G*%
%TO.N,/G*%
X107950000Y-72512500D03*
%TD*%
D13*
%TO.P,R22,2*%
%TO.N,/D4B*%
X114300000Y-43180000D03*
D12*
%TO.P,R22,1*%
%TO.N,GND*%
X106680000Y-43180000D03*
%TD*%
%TO.P,R4,1*%
%TO.N,/RB2*%
X116280000Y-104627500D03*
D13*
%TO.P,R4,2*%
%TO.N,VCC*%
X108660000Y-104627500D03*
%TD*%
D12*
%TO.P,R6,1*%
%TO.N,/RB0*%
X83050000Y-104627500D03*
D13*
%TO.P,R6,2*%
%TO.N,VCC*%
X75430000Y-104627500D03*
%TD*%
D10*
%TO.P,SW4,1,1*%
%TO.N,GND*%
X109145000Y-95540000D03*
X115645000Y-95540000D03*
%TO.P,SW4,2,2*%
%TO.N,/RB2*%
X109145000Y-100040000D03*
X115645000Y-100040000D03*
%TD*%
D12*
%TO.P,R11,1*%
%TO.N,/E*%
X63365000Y-84942500D03*
D13*
%TO.P,R11,2*%
%TO.N,/RD4*%
X55745000Y-84942500D03*
%TD*%
%TO.P,R15,2*%
%TO.N,/RB4*%
X66540000Y-40005000D03*
D12*
%TO.P,R15,1*%
%TO.N,/D1B*%
X74160000Y-40005000D03*
%TD*%
D13*
%TO.P,R21,2*%
%TO.N,/RB7*%
X106680000Y-40005000D03*
D12*
%TO.P,R21,1*%
%TO.N,/D4B*%
X114300000Y-40005000D03*
%TD*%
D13*
%TO.P,R18,2*%
%TO.N,/D2B*%
X87630000Y-43180000D03*
D12*
%TO.P,R18,1*%
%TO.N,GND*%
X80010000Y-43180000D03*
%TD*%
D16*
%TO.P,Y1,1,1*%
%TO.N,Net-(U1-RA6{slash}OSC2{slash}CLKO)*%
X30980000Y-85377500D03*
%TO.P,Y1,2,2*%
%TO.N,Net-(U1-OSC1{slash}CLKI)*%
X30980000Y-80497500D03*
%TD*%
D17*
%TO.P,Q2,3,C*%
%TO.N,/D2C*%
X88900000Y-49255000D03*
%TO.P,Q2,2,B*%
%TO.N,/D2B*%
X87630000Y-49255000D03*
D18*
%TO.P,Q2,1,E*%
%TO.N,GND*%
X86360000Y-49255000D03*
%TD*%
D12*
%TO.P,R12,1*%
%TO.N,/F*%
X63301787Y-81586072D03*
D13*
%TO.P,R12,2*%
%TO.N,/RD5*%
X55681787Y-81586072D03*
%TD*%
D12*
%TO.P,22uF2,1*%
%TO.N,Net-(U1-OSC1{slash}CLKI)*%
X26535000Y-80497500D03*
%TO.P,22uF2,2*%
%TO.N,GND*%
X24035000Y-80497500D03*
%TD*%
D10*
%TO.P,SW3,1,1*%
%TO.N,GND*%
X92635000Y-95540000D03*
X99135000Y-95540000D03*
%TO.P,SW3,2,2*%
%TO.N,/RB1*%
X92635000Y-100040000D03*
X99135000Y-100040000D03*
%TD*%
D17*
%TO.P,Q3,3,C*%
%TO.N,/D3C*%
X102870000Y-48895000D03*
%TO.P,Q3,2,B*%
%TO.N,/D3B*%
X101600000Y-48895000D03*
D18*
%TO.P,Q3,1,E*%
%TO.N,GND*%
X100330000Y-48895000D03*
%TD*%
D11*
%TO.P,U5,1,E*%
%TO.N,/E*%
X111125000Y-72267500D03*
D12*
%TO.P,U5,2,D*%
%TO.N,/D*%
X113665000Y-72267500D03*
%TO.P,U5,3,CC*%
%TO.N,unconnected-(U5-CC-Pad3)*%
X116205000Y-72267500D03*
%TO.P,U5,4,C*%
%TO.N,/C*%
X118745000Y-72267500D03*
%TO.P,U5,5,DP*%
%TO.N,/DP*%
X121285000Y-72267500D03*
%TO.P,U5,6,B*%
%TO.N,/B*%
X121285000Y-57027500D03*
%TO.P,U5,7,A*%
%TO.N,/A*%
X118745000Y-57027500D03*
%TO.P,U5,8,CC*%
%TO.N,/D4C*%
X116205000Y-57027500D03*
%TO.P,U5,9,F*%
%TO.N,/F*%
X113665000Y-57027500D03*
%TO.P,U5,10,G*%
%TO.N,/G*%
X111125000Y-57027500D03*
%TD*%
D17*
%TO.P,Q4,3,C*%
%TO.N,/D4C*%
X115570000Y-49255000D03*
%TO.P,Q4,2,B*%
%TO.N,/D4B*%
X114300000Y-49255000D03*
D18*
%TO.P,Q4,1,E*%
%TO.N,GND*%
X113030000Y-49255000D03*
%TD*%
D17*
%TO.P,Q1,3,C*%
%TO.N,/D1C*%
X75565000Y-49255000D03*
%TO.P,Q1,2,B*%
%TO.N,/D1B*%
X74295000Y-49255000D03*
D18*
%TO.P,Q1,1,E*%
%TO.N,GND*%
X73025000Y-49255000D03*
%TD*%
D11*
%TO.P,U3,1,E*%
%TO.N,/E*%
X84455000Y-72267500D03*
D12*
%TO.P,U3,2,D*%
%TO.N,/D*%
X86995000Y-72267500D03*
%TO.P,U3,3,CC*%
%TO.N,unconnected-(U3-CC-Pad3)*%
X89535000Y-72267500D03*
%TO.P,U3,4,C*%
%TO.N,/C*%
X92075000Y-72267500D03*
%TO.P,U3,5,DP*%
%TO.N,/DP*%
X94615000Y-72267500D03*
%TO.P,U3,6,B*%
%TO.N,/B*%
X94615000Y-57027500D03*
%TO.P,U3,7,A*%
%TO.N,/A*%
X92075000Y-57027500D03*
%TO.P,U3,8,CC*%
%TO.N,/D2C*%
X89535000Y-57027500D03*
%TO.P,U3,9,F*%
%TO.N,/F*%
X86995000Y-57027500D03*
%TO.P,U3,10,G*%
%TO.N,/G*%
X84455000Y-57027500D03*
%TD*%
%TO.P,R10,1*%
%TO.N,/D*%
X63365000Y-95737500D03*
D13*
%TO.P,R10,2*%
%TO.N,/RD3*%
X55745000Y-95737500D03*
%TD*%
D12*
%TO.P,R2,1*%
%TO.N,/PGD*%
X53975000Y-50165000D03*
D13*
%TO.P,R2,2*%
%TO.N,/RB7*%
X61595000Y-50165000D03*
%TD*%
D12*
%TO.P,R14,1*%
%TO.N,/DP*%
X63365000Y-74782500D03*
D13*
%TO.P,R14,2*%
%TO.N,/RD7*%
X55745000Y-74782500D03*
%TD*%
%TO.P,R19,2*%
%TO.N,/RB6*%
X93845000Y-39857500D03*
D12*
%TO.P,R19,1*%
%TO.N,/D3B*%
X101465000Y-39857500D03*
%TD*%
D13*
%TO.P,R20,2*%
%TO.N,/D3B*%
X101465000Y-43032500D03*
D12*
%TO.P,R20,1*%
%TO.N,GND*%
X93845000Y-43032500D03*
%TD*%
%TO.P,R3,1*%
%TO.N,/MCLR*%
X32385000Y-50800000D03*
D13*
%TO.P,R3,2*%
%TO.N,VCC*%
X32385000Y-58420000D03*
%TD*%
D19*
%TO.P,J2,1,Pin_1*%
%TO.N,VCC*%
X26670000Y-110472500D03*
D20*
%TO.P,J2,2,Pin_2*%
%TO.N,GND*%
X26670000Y-105392500D03*
%TD*%
D12*
%TO.P,R13,1*%
%TO.N,/G*%
X63238574Y-78229644D03*
D13*
%TO.P,R13,2*%
%TO.N,/RD6*%
X55618574Y-78229644D03*
%TD*%
%TO.P,R16,2*%
%TO.N,/D1B*%
X74295000Y-43180000D03*
D12*
%TO.P,R16,1*%
%TO.N,GND*%
X66675000Y-43180000D03*
%TD*%
D13*
%TO.P,R17,2*%
%TO.N,/RB5*%
X80010000Y-40005000D03*
D12*
%TO.P,R17,1*%
%TO.N,/D2B*%
X87630000Y-40005000D03*
%TD*%
D21*
%TO.N,/G*%
X71120000Y-58407500D02*
X72255000Y-59542500D01*
X71120000Y-57027500D02*
X71120000Y-58407500D01*
X72255000Y-59542500D02*
X81940000Y-59542500D01*
X81940000Y-59542500D02*
X84455000Y-57027500D01*
%TO.N,/RB6*%
X61595000Y-53340000D02*
X68092500Y-46842500D01*
X86860000Y-46842500D02*
X93845000Y-39857500D01*
X68092500Y-46842500D02*
X86860000Y-46842500D01*
%TO.N,/RB7*%
X61595000Y-50165000D02*
X63217500Y-50165000D01*
X84320000Y-38587500D02*
X105262500Y-38587500D01*
X63217500Y-50165000D02*
X67810000Y-45572500D01*
X67810000Y-45572500D02*
X82415000Y-45572500D01*
X82415000Y-45572500D02*
X84320000Y-43667500D01*
X84320000Y-43667500D02*
X84320000Y-38587500D01*
X105262500Y-38587500D02*
X106680000Y-40005000D01*
%TO.N,/DP*%
X97790000Y-57272500D02*
X97790000Y-69092500D01*
X97790000Y-69092500D02*
X94615000Y-72267500D01*
%TO.N,/G*%
X107950000Y-72512500D02*
X107950000Y-60202500D01*
X107950000Y-60202500D02*
X111125000Y-57027500D01*
%TO.N,/RB2*%
X109145000Y-100040000D02*
X107820000Y-98715000D01*
X93183833Y-98715000D02*
X57968833Y-63500000D01*
X107820000Y-98715000D02*
X93183833Y-98715000D01*
X57968833Y-63500000D02*
X50800000Y-63500000D01*
%TO.N,/RB1*%
X92635000Y-100040000D02*
X58635000Y-66040000D01*
X58635000Y-66040000D02*
X50800000Y-66040000D01*
%TO.N,/RB0*%
X53205000Y-80811509D02*
X53205000Y-69702500D01*
X52082500Y-68580000D02*
X50800000Y-68580000D01*
X72433491Y-100040000D02*
X53205000Y-80811509D01*
X76125000Y-100040000D02*
X72433491Y-100040000D01*
X53205000Y-69702500D02*
X52082500Y-68580000D01*
%TD*%
M02*
