%TF.GenerationSoftware,KiCad,Pcbnew,7.0.11+dfsg-1build4*%
%TF.CreationDate,2026-03-31T18:10:33-06:00*%
%TF.ProjectId,digital_clock,64696769-7461-46c5-9f63-6c6f636b2e6b,rev?*%
%TF.SameCoordinates,Original*%
%TF.FileFunction,Legend,Top*%
%TF.FilePolarity,Positive*%
%FSLAX46Y46*%
G04 Gerber Fmt 4.6, Leading zero omitted, Abs format (unit mm)*
G04 Created by KiCad (PCBNEW 7.0.11+dfsg-1build4) date 2026-03-31 18:10:33*
%MOMM*%
%LPD*%
G01*
G04 APERTURE LIST*
%ADD10C,0.150000*%
%ADD11C,0.120000*%
G04 APERTURE END LIST*
D10*
X78041667Y-93947200D02*
X78184524Y-93994819D01*
X78184524Y-93994819D02*
X78422619Y-93994819D01*
X78422619Y-93994819D02*
X78517857Y-93947200D01*
X78517857Y-93947200D02*
X78565476Y-93899580D01*
X78565476Y-93899580D02*
X78613095Y-93804342D01*
X78613095Y-93804342D02*
X78613095Y-93709104D01*
X78613095Y-93709104D02*
X78565476Y-93613866D01*
X78565476Y-93613866D02*
X78517857Y-93566247D01*
X78517857Y-93566247D02*
X78422619Y-93518628D01*
X78422619Y-93518628D02*
X78232143Y-93471009D01*
X78232143Y-93471009D02*
X78136905Y-93423390D01*
X78136905Y-93423390D02*
X78089286Y-93375771D01*
X78089286Y-93375771D02*
X78041667Y-93280533D01*
X78041667Y-93280533D02*
X78041667Y-93185295D01*
X78041667Y-93185295D02*
X78089286Y-93090057D01*
X78089286Y-93090057D02*
X78136905Y-93042438D01*
X78136905Y-93042438D02*
X78232143Y-92994819D01*
X78232143Y-92994819D02*
X78470238Y-92994819D01*
X78470238Y-92994819D02*
X78613095Y-93042438D01*
X78946429Y-92994819D02*
X79184524Y-93994819D01*
X79184524Y-93994819D02*
X79375000Y-93280533D01*
X79375000Y-93280533D02*
X79565476Y-93994819D01*
X79565476Y-93994819D02*
X79803572Y-92994819D01*
X80136905Y-93090057D02*
X80184524Y-93042438D01*
X80184524Y-93042438D02*
X80279762Y-92994819D01*
X80279762Y-92994819D02*
X80517857Y-92994819D01*
X80517857Y-92994819D02*
X80613095Y-93042438D01*
X80613095Y-93042438D02*
X80660714Y-93090057D01*
X80660714Y-93090057D02*
X80708333Y-93185295D01*
X80708333Y-93185295D02*
X80708333Y-93280533D01*
X80708333Y-93280533D02*
X80660714Y-93423390D01*
X80660714Y-93423390D02*
X80089286Y-93994819D01*
X80089286Y-93994819D02*
X80708333Y-93994819D01*
X42418095Y-47924819D02*
X42418095Y-48734342D01*
X42418095Y-48734342D02*
X42465714Y-48829580D01*
X42465714Y-48829580D02*
X42513333Y-48877200D01*
X42513333Y-48877200D02*
X42608571Y-48924819D01*
X42608571Y-48924819D02*
X42799047Y-48924819D01*
X42799047Y-48924819D02*
X42894285Y-48877200D01*
X42894285Y-48877200D02*
X42941904Y-48829580D01*
X42941904Y-48829580D02*
X42989523Y-48734342D01*
X42989523Y-48734342D02*
X42989523Y-47924819D01*
X43989523Y-48924819D02*
X43418095Y-48924819D01*
X43703809Y-48924819D02*
X43703809Y-47924819D01*
X43703809Y-47924819D02*
X43608571Y-48067676D01*
X43608571Y-48067676D02*
X43513333Y-48162914D01*
X43513333Y-48162914D02*
X43418095Y-48210533D01*
X34014819Y-42303333D02*
X34729104Y-42303333D01*
X34729104Y-42303333D02*
X34871961Y-42350952D01*
X34871961Y-42350952D02*
X34967200Y-42446190D01*
X34967200Y-42446190D02*
X35014819Y-42589047D01*
X35014819Y-42589047D02*
X35014819Y-42684285D01*
X35014819Y-41303333D02*
X35014819Y-41874761D01*
X35014819Y-41589047D02*
X34014819Y-41589047D01*
X34014819Y-41589047D02*
X34157676Y-41684285D01*
X34157676Y-41684285D02*
X34252914Y-41779523D01*
X34252914Y-41779523D02*
X34300533Y-41874761D01*
X58753333Y-108087319D02*
X58420000Y-107611128D01*
X58181905Y-108087319D02*
X58181905Y-107087319D01*
X58181905Y-107087319D02*
X58562857Y-107087319D01*
X58562857Y-107087319D02*
X58658095Y-107134938D01*
X58658095Y-107134938D02*
X58705714Y-107182557D01*
X58705714Y-107182557D02*
X58753333Y-107277795D01*
X58753333Y-107277795D02*
X58753333Y-107420652D01*
X58753333Y-107420652D02*
X58705714Y-107515890D01*
X58705714Y-107515890D02*
X58658095Y-107563509D01*
X58658095Y-107563509D02*
X58562857Y-107611128D01*
X58562857Y-107611128D02*
X58181905Y-107611128D01*
X59324762Y-107515890D02*
X59229524Y-107468271D01*
X59229524Y-107468271D02*
X59181905Y-107420652D01*
X59181905Y-107420652D02*
X59134286Y-107325414D01*
X59134286Y-107325414D02*
X59134286Y-107277795D01*
X59134286Y-107277795D02*
X59181905Y-107182557D01*
X59181905Y-107182557D02*
X59229524Y-107134938D01*
X59229524Y-107134938D02*
X59324762Y-107087319D01*
X59324762Y-107087319D02*
X59515238Y-107087319D01*
X59515238Y-107087319D02*
X59610476Y-107134938D01*
X59610476Y-107134938D02*
X59658095Y-107182557D01*
X59658095Y-107182557D02*
X59705714Y-107277795D01*
X59705714Y-107277795D02*
X59705714Y-107325414D01*
X59705714Y-107325414D02*
X59658095Y-107420652D01*
X59658095Y-107420652D02*
X59610476Y-107468271D01*
X59610476Y-107468271D02*
X59515238Y-107515890D01*
X59515238Y-107515890D02*
X59324762Y-107515890D01*
X59324762Y-107515890D02*
X59229524Y-107563509D01*
X59229524Y-107563509D02*
X59181905Y-107611128D01*
X59181905Y-107611128D02*
X59134286Y-107706366D01*
X59134286Y-107706366D02*
X59134286Y-107896842D01*
X59134286Y-107896842D02*
X59181905Y-107992080D01*
X59181905Y-107992080D02*
X59229524Y-108039700D01*
X59229524Y-108039700D02*
X59324762Y-108087319D01*
X59324762Y-108087319D02*
X59515238Y-108087319D01*
X59515238Y-108087319D02*
X59610476Y-108039700D01*
X59610476Y-108039700D02*
X59658095Y-107992080D01*
X59658095Y-107992080D02*
X59705714Y-107896842D01*
X59705714Y-107896842D02*
X59705714Y-107706366D01*
X59705714Y-107706366D02*
X59658095Y-107611128D01*
X59658095Y-107611128D02*
X59610476Y-107563509D01*
X59610476Y-107563509D02*
X59515238Y-107515890D01*
X57618333Y-51424819D02*
X57285000Y-50948628D01*
X57046905Y-51424819D02*
X57046905Y-50424819D01*
X57046905Y-50424819D02*
X57427857Y-50424819D01*
X57427857Y-50424819D02*
X57523095Y-50472438D01*
X57523095Y-50472438D02*
X57570714Y-50520057D01*
X57570714Y-50520057D02*
X57618333Y-50615295D01*
X57618333Y-50615295D02*
X57618333Y-50758152D01*
X57618333Y-50758152D02*
X57570714Y-50853390D01*
X57570714Y-50853390D02*
X57523095Y-50901009D01*
X57523095Y-50901009D02*
X57427857Y-50948628D01*
X57427857Y-50948628D02*
X57046905Y-50948628D01*
X58570714Y-51424819D02*
X57999286Y-51424819D01*
X58285000Y-51424819D02*
X58285000Y-50424819D01*
X58285000Y-50424819D02*
X58189762Y-50567676D01*
X58189762Y-50567676D02*
X58094524Y-50662914D01*
X58094524Y-50662914D02*
X57999286Y-50710533D01*
X23431667Y-58632200D02*
X23574524Y-58679819D01*
X23574524Y-58679819D02*
X23812619Y-58679819D01*
X23812619Y-58679819D02*
X23907857Y-58632200D01*
X23907857Y-58632200D02*
X23955476Y-58584580D01*
X23955476Y-58584580D02*
X24003095Y-58489342D01*
X24003095Y-58489342D02*
X24003095Y-58394104D01*
X24003095Y-58394104D02*
X23955476Y-58298866D01*
X23955476Y-58298866D02*
X23907857Y-58251247D01*
X23907857Y-58251247D02*
X23812619Y-58203628D01*
X23812619Y-58203628D02*
X23622143Y-58156009D01*
X23622143Y-58156009D02*
X23526905Y-58108390D01*
X23526905Y-58108390D02*
X23479286Y-58060771D01*
X23479286Y-58060771D02*
X23431667Y-57965533D01*
X23431667Y-57965533D02*
X23431667Y-57870295D01*
X23431667Y-57870295D02*
X23479286Y-57775057D01*
X23479286Y-57775057D02*
X23526905Y-57727438D01*
X23526905Y-57727438D02*
X23622143Y-57679819D01*
X23622143Y-57679819D02*
X23860238Y-57679819D01*
X23860238Y-57679819D02*
X24003095Y-57727438D01*
X24336429Y-57679819D02*
X24574524Y-58679819D01*
X24574524Y-58679819D02*
X24765000Y-57965533D01*
X24765000Y-57965533D02*
X24955476Y-58679819D01*
X24955476Y-58679819D02*
X25193572Y-57679819D01*
X26098333Y-58679819D02*
X25526905Y-58679819D01*
X25812619Y-58679819D02*
X25812619Y-57679819D01*
X25812619Y-57679819D02*
X25717381Y-57822676D01*
X25717381Y-57822676D02*
X25622143Y-57917914D01*
X25622143Y-57917914D02*
X25526905Y-57965533D01*
X95583333Y-107452319D02*
X95250000Y-106976128D01*
X95011905Y-107452319D02*
X95011905Y-106452319D01*
X95011905Y-106452319D02*
X95392857Y-106452319D01*
X95392857Y-106452319D02*
X95488095Y-106499938D01*
X95488095Y-106499938D02*
X95535714Y-106547557D01*
X95535714Y-106547557D02*
X95583333Y-106642795D01*
X95583333Y-106642795D02*
X95583333Y-106785652D01*
X95583333Y-106785652D02*
X95535714Y-106880890D01*
X95535714Y-106880890D02*
X95488095Y-106928509D01*
X95488095Y-106928509D02*
X95392857Y-106976128D01*
X95392857Y-106976128D02*
X95011905Y-106976128D01*
X96488095Y-106452319D02*
X96011905Y-106452319D01*
X96011905Y-106452319D02*
X95964286Y-106928509D01*
X95964286Y-106928509D02*
X96011905Y-106880890D01*
X96011905Y-106880890D02*
X96107143Y-106833271D01*
X96107143Y-106833271D02*
X96345238Y-106833271D01*
X96345238Y-106833271D02*
X96440476Y-106880890D01*
X96440476Y-106880890D02*
X96488095Y-106928509D01*
X96488095Y-106928509D02*
X96535714Y-107023747D01*
X96535714Y-107023747D02*
X96535714Y-107261842D01*
X96535714Y-107261842D02*
X96488095Y-107357080D01*
X96488095Y-107357080D02*
X96440476Y-107404700D01*
X96440476Y-107404700D02*
X96345238Y-107452319D01*
X96345238Y-107452319D02*
X96107143Y-107452319D01*
X96107143Y-107452319D02*
X96011905Y-107404700D01*
X96011905Y-107404700D02*
X95964286Y-107357080D01*
X59388333Y-104912319D02*
X59055000Y-104436128D01*
X58816905Y-104912319D02*
X58816905Y-103912319D01*
X58816905Y-103912319D02*
X59197857Y-103912319D01*
X59197857Y-103912319D02*
X59293095Y-103959938D01*
X59293095Y-103959938D02*
X59340714Y-104007557D01*
X59340714Y-104007557D02*
X59388333Y-104102795D01*
X59388333Y-104102795D02*
X59388333Y-104245652D01*
X59388333Y-104245652D02*
X59340714Y-104340890D01*
X59340714Y-104340890D02*
X59293095Y-104388509D01*
X59293095Y-104388509D02*
X59197857Y-104436128D01*
X59197857Y-104436128D02*
X58816905Y-104436128D01*
X59721667Y-103912319D02*
X60388333Y-103912319D01*
X60388333Y-103912319D02*
X59959762Y-104912319D01*
X59388333Y-101737319D02*
X59055000Y-101261128D01*
X58816905Y-101737319D02*
X58816905Y-100737319D01*
X58816905Y-100737319D02*
X59197857Y-100737319D01*
X59197857Y-100737319D02*
X59293095Y-100784938D01*
X59293095Y-100784938D02*
X59340714Y-100832557D01*
X59340714Y-100832557D02*
X59388333Y-100927795D01*
X59388333Y-100927795D02*
X59388333Y-101070652D01*
X59388333Y-101070652D02*
X59340714Y-101165890D01*
X59340714Y-101165890D02*
X59293095Y-101213509D01*
X59293095Y-101213509D02*
X59197857Y-101261128D01*
X59197857Y-101261128D02*
X58816905Y-101261128D01*
X59864524Y-101737319D02*
X60055000Y-101737319D01*
X60055000Y-101737319D02*
X60150238Y-101689700D01*
X60150238Y-101689700D02*
X60197857Y-101642080D01*
X60197857Y-101642080D02*
X60293095Y-101499223D01*
X60293095Y-101499223D02*
X60340714Y-101308747D01*
X60340714Y-101308747D02*
X60340714Y-100927795D01*
X60340714Y-100927795D02*
X60293095Y-100832557D01*
X60293095Y-100832557D02*
X60245476Y-100784938D01*
X60245476Y-100784938D02*
X60150238Y-100737319D01*
X60150238Y-100737319D02*
X59959762Y-100737319D01*
X59959762Y-100737319D02*
X59864524Y-100784938D01*
X59864524Y-100784938D02*
X59816905Y-100832557D01*
X59816905Y-100832557D02*
X59769286Y-100927795D01*
X59769286Y-100927795D02*
X59769286Y-101165890D01*
X59769286Y-101165890D02*
X59816905Y-101261128D01*
X59816905Y-101261128D02*
X59864524Y-101308747D01*
X59864524Y-101308747D02*
X59959762Y-101356366D01*
X59959762Y-101356366D02*
X60150238Y-101356366D01*
X60150238Y-101356366D02*
X60245476Y-101308747D01*
X60245476Y-101308747D02*
X60293095Y-101261128D01*
X60293095Y-101261128D02*
X60340714Y-101165890D01*
X23165952Y-86542557D02*
X23213571Y-86494938D01*
X23213571Y-86494938D02*
X23308809Y-86447319D01*
X23308809Y-86447319D02*
X23546904Y-86447319D01*
X23546904Y-86447319D02*
X23642142Y-86494938D01*
X23642142Y-86494938D02*
X23689761Y-86542557D01*
X23689761Y-86542557D02*
X23737380Y-86637795D01*
X23737380Y-86637795D02*
X23737380Y-86733033D01*
X23737380Y-86733033D02*
X23689761Y-86875890D01*
X23689761Y-86875890D02*
X23118333Y-87447319D01*
X23118333Y-87447319D02*
X23737380Y-87447319D01*
X24118333Y-86542557D02*
X24165952Y-86494938D01*
X24165952Y-86494938D02*
X24261190Y-86447319D01*
X24261190Y-86447319D02*
X24499285Y-86447319D01*
X24499285Y-86447319D02*
X24594523Y-86494938D01*
X24594523Y-86494938D02*
X24642142Y-86542557D01*
X24642142Y-86542557D02*
X24689761Y-86637795D01*
X24689761Y-86637795D02*
X24689761Y-86733033D01*
X24689761Y-86733033D02*
X24642142Y-86875890D01*
X24642142Y-86875890D02*
X24070714Y-87447319D01*
X24070714Y-87447319D02*
X24689761Y-87447319D01*
X25546904Y-86780652D02*
X25546904Y-87447319D01*
X25118333Y-86780652D02*
X25118333Y-87304461D01*
X25118333Y-87304461D02*
X25165952Y-87399700D01*
X25165952Y-87399700D02*
X25261190Y-87447319D01*
X25261190Y-87447319D02*
X25404047Y-87447319D01*
X25404047Y-87447319D02*
X25499285Y-87399700D01*
X25499285Y-87399700D02*
X25546904Y-87352080D01*
X26356428Y-86923509D02*
X26023095Y-86923509D01*
X26023095Y-87447319D02*
X26023095Y-86447319D01*
X26023095Y-86447319D02*
X26499285Y-86447319D01*
X27404047Y-87447319D02*
X26832619Y-87447319D01*
X27118333Y-87447319D02*
X27118333Y-86447319D01*
X27118333Y-86447319D02*
X27023095Y-86590176D01*
X27023095Y-86590176D02*
X26927857Y-86685414D01*
X26927857Y-86685414D02*
X26832619Y-86733033D01*
X109884819Y-58064404D02*
X110694342Y-58064404D01*
X110694342Y-58064404D02*
X110789580Y-58016785D01*
X110789580Y-58016785D02*
X110837200Y-57969166D01*
X110837200Y-57969166D02*
X110884819Y-57873928D01*
X110884819Y-57873928D02*
X110884819Y-57683452D01*
X110884819Y-57683452D02*
X110837200Y-57588214D01*
X110837200Y-57588214D02*
X110789580Y-57540595D01*
X110789580Y-57540595D02*
X110694342Y-57492976D01*
X110694342Y-57492976D02*
X109884819Y-57492976D01*
X110218152Y-56588214D02*
X110884819Y-56588214D01*
X109837200Y-56826309D02*
X110551485Y-57064404D01*
X110551485Y-57064404D02*
X110551485Y-56445357D01*
X109872142Y-39824819D02*
X109538809Y-39348628D01*
X109300714Y-39824819D02*
X109300714Y-38824819D01*
X109300714Y-38824819D02*
X109681666Y-38824819D01*
X109681666Y-38824819D02*
X109776904Y-38872438D01*
X109776904Y-38872438D02*
X109824523Y-38920057D01*
X109824523Y-38920057D02*
X109872142Y-39015295D01*
X109872142Y-39015295D02*
X109872142Y-39158152D01*
X109872142Y-39158152D02*
X109824523Y-39253390D01*
X109824523Y-39253390D02*
X109776904Y-39301009D01*
X109776904Y-39301009D02*
X109681666Y-39348628D01*
X109681666Y-39348628D02*
X109300714Y-39348628D01*
X110253095Y-38920057D02*
X110300714Y-38872438D01*
X110300714Y-38872438D02*
X110395952Y-38824819D01*
X110395952Y-38824819D02*
X110634047Y-38824819D01*
X110634047Y-38824819D02*
X110729285Y-38872438D01*
X110729285Y-38872438D02*
X110776904Y-38920057D01*
X110776904Y-38920057D02*
X110824523Y-39015295D01*
X110824523Y-39015295D02*
X110824523Y-39110533D01*
X110824523Y-39110533D02*
X110776904Y-39253390D01*
X110776904Y-39253390D02*
X110205476Y-39824819D01*
X110205476Y-39824819D02*
X110824523Y-39824819D01*
X111205476Y-38920057D02*
X111253095Y-38872438D01*
X111253095Y-38872438D02*
X111348333Y-38824819D01*
X111348333Y-38824819D02*
X111586428Y-38824819D01*
X111586428Y-38824819D02*
X111681666Y-38872438D01*
X111681666Y-38872438D02*
X111729285Y-38920057D01*
X111729285Y-38920057D02*
X111776904Y-39015295D01*
X111776904Y-39015295D02*
X111776904Y-39110533D01*
X111776904Y-39110533D02*
X111729285Y-39253390D01*
X111729285Y-39253390D02*
X111157857Y-39824819D01*
X111157857Y-39824819D02*
X111776904Y-39824819D01*
X112303333Y-107452319D02*
X111970000Y-106976128D01*
X111731905Y-107452319D02*
X111731905Y-106452319D01*
X111731905Y-106452319D02*
X112112857Y-106452319D01*
X112112857Y-106452319D02*
X112208095Y-106499938D01*
X112208095Y-106499938D02*
X112255714Y-106547557D01*
X112255714Y-106547557D02*
X112303333Y-106642795D01*
X112303333Y-106642795D02*
X112303333Y-106785652D01*
X112303333Y-106785652D02*
X112255714Y-106880890D01*
X112255714Y-106880890D02*
X112208095Y-106928509D01*
X112208095Y-106928509D02*
X112112857Y-106976128D01*
X112112857Y-106976128D02*
X111731905Y-106976128D01*
X113160476Y-106785652D02*
X113160476Y-107452319D01*
X112922381Y-106404700D02*
X112684286Y-107118985D01*
X112684286Y-107118985D02*
X113303333Y-107118985D01*
X79073333Y-106452319D02*
X78740000Y-105976128D01*
X78501905Y-106452319D02*
X78501905Y-105452319D01*
X78501905Y-105452319D02*
X78882857Y-105452319D01*
X78882857Y-105452319D02*
X78978095Y-105499938D01*
X78978095Y-105499938D02*
X79025714Y-105547557D01*
X79025714Y-105547557D02*
X79073333Y-105642795D01*
X79073333Y-105642795D02*
X79073333Y-105785652D01*
X79073333Y-105785652D02*
X79025714Y-105880890D01*
X79025714Y-105880890D02*
X78978095Y-105928509D01*
X78978095Y-105928509D02*
X78882857Y-105976128D01*
X78882857Y-105976128D02*
X78501905Y-105976128D01*
X79930476Y-105452319D02*
X79740000Y-105452319D01*
X79740000Y-105452319D02*
X79644762Y-105499938D01*
X79644762Y-105499938D02*
X79597143Y-105547557D01*
X79597143Y-105547557D02*
X79501905Y-105690414D01*
X79501905Y-105690414D02*
X79454286Y-105880890D01*
X79454286Y-105880890D02*
X79454286Y-106261842D01*
X79454286Y-106261842D02*
X79501905Y-106357080D01*
X79501905Y-106357080D02*
X79549524Y-106404700D01*
X79549524Y-106404700D02*
X79644762Y-106452319D01*
X79644762Y-106452319D02*
X79835238Y-106452319D01*
X79835238Y-106452319D02*
X79930476Y-106404700D01*
X79930476Y-106404700D02*
X79978095Y-106357080D01*
X79978095Y-106357080D02*
X80025714Y-106261842D01*
X80025714Y-106261842D02*
X80025714Y-106023747D01*
X80025714Y-106023747D02*
X79978095Y-105928509D01*
X79978095Y-105928509D02*
X79930476Y-105880890D01*
X79930476Y-105880890D02*
X79835238Y-105833271D01*
X79835238Y-105833271D02*
X79644762Y-105833271D01*
X79644762Y-105833271D02*
X79549524Y-105880890D01*
X79549524Y-105880890D02*
X79501905Y-105928509D01*
X79501905Y-105928509D02*
X79454286Y-106023747D01*
X111061667Y-93947200D02*
X111204524Y-93994819D01*
X111204524Y-93994819D02*
X111442619Y-93994819D01*
X111442619Y-93994819D02*
X111537857Y-93947200D01*
X111537857Y-93947200D02*
X111585476Y-93899580D01*
X111585476Y-93899580D02*
X111633095Y-93804342D01*
X111633095Y-93804342D02*
X111633095Y-93709104D01*
X111633095Y-93709104D02*
X111585476Y-93613866D01*
X111585476Y-93613866D02*
X111537857Y-93566247D01*
X111537857Y-93566247D02*
X111442619Y-93518628D01*
X111442619Y-93518628D02*
X111252143Y-93471009D01*
X111252143Y-93471009D02*
X111156905Y-93423390D01*
X111156905Y-93423390D02*
X111109286Y-93375771D01*
X111109286Y-93375771D02*
X111061667Y-93280533D01*
X111061667Y-93280533D02*
X111061667Y-93185295D01*
X111061667Y-93185295D02*
X111109286Y-93090057D01*
X111109286Y-93090057D02*
X111156905Y-93042438D01*
X111156905Y-93042438D02*
X111252143Y-92994819D01*
X111252143Y-92994819D02*
X111490238Y-92994819D01*
X111490238Y-92994819D02*
X111633095Y-93042438D01*
X111966429Y-92994819D02*
X112204524Y-93994819D01*
X112204524Y-93994819D02*
X112395000Y-93280533D01*
X112395000Y-93280533D02*
X112585476Y-93994819D01*
X112585476Y-93994819D02*
X112823572Y-92994819D01*
X113633095Y-93328152D02*
X113633095Y-93994819D01*
X113395000Y-92947200D02*
X113156905Y-93661485D01*
X113156905Y-93661485D02*
X113775952Y-93661485D01*
X58912142Y-87767319D02*
X58578809Y-87291128D01*
X58340714Y-87767319D02*
X58340714Y-86767319D01*
X58340714Y-86767319D02*
X58721666Y-86767319D01*
X58721666Y-86767319D02*
X58816904Y-86814938D01*
X58816904Y-86814938D02*
X58864523Y-86862557D01*
X58864523Y-86862557D02*
X58912142Y-86957795D01*
X58912142Y-86957795D02*
X58912142Y-87100652D01*
X58912142Y-87100652D02*
X58864523Y-87195890D01*
X58864523Y-87195890D02*
X58816904Y-87243509D01*
X58816904Y-87243509D02*
X58721666Y-87291128D01*
X58721666Y-87291128D02*
X58340714Y-87291128D01*
X59864523Y-87767319D02*
X59293095Y-87767319D01*
X59578809Y-87767319D02*
X59578809Y-86767319D01*
X59578809Y-86767319D02*
X59483571Y-86910176D01*
X59483571Y-86910176D02*
X59388333Y-87005414D01*
X59388333Y-87005414D02*
X59293095Y-87053033D01*
X60816904Y-87767319D02*
X60245476Y-87767319D01*
X60531190Y-87767319D02*
X60531190Y-86767319D01*
X60531190Y-86767319D02*
X60435952Y-86910176D01*
X60435952Y-86910176D02*
X60340714Y-87005414D01*
X60340714Y-87005414D02*
X60245476Y-87053033D01*
X69707142Y-42829819D02*
X69373809Y-42353628D01*
X69135714Y-42829819D02*
X69135714Y-41829819D01*
X69135714Y-41829819D02*
X69516666Y-41829819D01*
X69516666Y-41829819D02*
X69611904Y-41877438D01*
X69611904Y-41877438D02*
X69659523Y-41925057D01*
X69659523Y-41925057D02*
X69707142Y-42020295D01*
X69707142Y-42020295D02*
X69707142Y-42163152D01*
X69707142Y-42163152D02*
X69659523Y-42258390D01*
X69659523Y-42258390D02*
X69611904Y-42306009D01*
X69611904Y-42306009D02*
X69516666Y-42353628D01*
X69516666Y-42353628D02*
X69135714Y-42353628D01*
X70659523Y-42829819D02*
X70088095Y-42829819D01*
X70373809Y-42829819D02*
X70373809Y-41829819D01*
X70373809Y-41829819D02*
X70278571Y-41972676D01*
X70278571Y-41972676D02*
X70183333Y-42067914D01*
X70183333Y-42067914D02*
X70088095Y-42115533D01*
X71564285Y-41829819D02*
X71088095Y-41829819D01*
X71088095Y-41829819D02*
X71040476Y-42306009D01*
X71040476Y-42306009D02*
X71088095Y-42258390D01*
X71088095Y-42258390D02*
X71183333Y-42210771D01*
X71183333Y-42210771D02*
X71421428Y-42210771D01*
X71421428Y-42210771D02*
X71516666Y-42258390D01*
X71516666Y-42258390D02*
X71564285Y-42306009D01*
X71564285Y-42306009D02*
X71611904Y-42401247D01*
X71611904Y-42401247D02*
X71611904Y-42639342D01*
X71611904Y-42639342D02*
X71564285Y-42734580D01*
X71564285Y-42734580D02*
X71516666Y-42782200D01*
X71516666Y-42782200D02*
X71421428Y-42829819D01*
X71421428Y-42829819D02*
X71183333Y-42829819D01*
X71183333Y-42829819D02*
X71088095Y-42782200D01*
X71088095Y-42782200D02*
X71040476Y-42734580D01*
X109847142Y-42829819D02*
X109513809Y-42353628D01*
X109275714Y-42829819D02*
X109275714Y-41829819D01*
X109275714Y-41829819D02*
X109656666Y-41829819D01*
X109656666Y-41829819D02*
X109751904Y-41877438D01*
X109751904Y-41877438D02*
X109799523Y-41925057D01*
X109799523Y-41925057D02*
X109847142Y-42020295D01*
X109847142Y-42020295D02*
X109847142Y-42163152D01*
X109847142Y-42163152D02*
X109799523Y-42258390D01*
X109799523Y-42258390D02*
X109751904Y-42306009D01*
X109751904Y-42306009D02*
X109656666Y-42353628D01*
X109656666Y-42353628D02*
X109275714Y-42353628D01*
X110228095Y-41925057D02*
X110275714Y-41877438D01*
X110275714Y-41877438D02*
X110370952Y-41829819D01*
X110370952Y-41829819D02*
X110609047Y-41829819D01*
X110609047Y-41829819D02*
X110704285Y-41877438D01*
X110704285Y-41877438D02*
X110751904Y-41925057D01*
X110751904Y-41925057D02*
X110799523Y-42020295D01*
X110799523Y-42020295D02*
X110799523Y-42115533D01*
X110799523Y-42115533D02*
X110751904Y-42258390D01*
X110751904Y-42258390D02*
X110180476Y-42829819D01*
X110180476Y-42829819D02*
X110799523Y-42829819D01*
X111751904Y-42829819D02*
X111180476Y-42829819D01*
X111466190Y-42829819D02*
X111466190Y-41829819D01*
X111466190Y-41829819D02*
X111370952Y-41972676D01*
X111370952Y-41972676D02*
X111275714Y-42067914D01*
X111275714Y-42067914D02*
X111180476Y-42115533D01*
X83177142Y-41264819D02*
X82843809Y-40788628D01*
X82605714Y-41264819D02*
X82605714Y-40264819D01*
X82605714Y-40264819D02*
X82986666Y-40264819D01*
X82986666Y-40264819D02*
X83081904Y-40312438D01*
X83081904Y-40312438D02*
X83129523Y-40360057D01*
X83129523Y-40360057D02*
X83177142Y-40455295D01*
X83177142Y-40455295D02*
X83177142Y-40598152D01*
X83177142Y-40598152D02*
X83129523Y-40693390D01*
X83129523Y-40693390D02*
X83081904Y-40741009D01*
X83081904Y-40741009D02*
X82986666Y-40788628D01*
X82986666Y-40788628D02*
X82605714Y-40788628D01*
X84129523Y-41264819D02*
X83558095Y-41264819D01*
X83843809Y-41264819D02*
X83843809Y-40264819D01*
X83843809Y-40264819D02*
X83748571Y-40407676D01*
X83748571Y-40407676D02*
X83653333Y-40502914D01*
X83653333Y-40502914D02*
X83558095Y-40550533D01*
X84700952Y-40693390D02*
X84605714Y-40645771D01*
X84605714Y-40645771D02*
X84558095Y-40598152D01*
X84558095Y-40598152D02*
X84510476Y-40502914D01*
X84510476Y-40502914D02*
X84510476Y-40455295D01*
X84510476Y-40455295D02*
X84558095Y-40360057D01*
X84558095Y-40360057D02*
X84605714Y-40312438D01*
X84605714Y-40312438D02*
X84700952Y-40264819D01*
X84700952Y-40264819D02*
X84891428Y-40264819D01*
X84891428Y-40264819D02*
X84986666Y-40312438D01*
X84986666Y-40312438D02*
X85034285Y-40360057D01*
X85034285Y-40360057D02*
X85081904Y-40455295D01*
X85081904Y-40455295D02*
X85081904Y-40502914D01*
X85081904Y-40502914D02*
X85034285Y-40598152D01*
X85034285Y-40598152D02*
X84986666Y-40645771D01*
X84986666Y-40645771D02*
X84891428Y-40693390D01*
X84891428Y-40693390D02*
X84700952Y-40693390D01*
X84700952Y-40693390D02*
X84605714Y-40741009D01*
X84605714Y-40741009D02*
X84558095Y-40788628D01*
X84558095Y-40788628D02*
X84510476Y-40883866D01*
X84510476Y-40883866D02*
X84510476Y-41074342D01*
X84510476Y-41074342D02*
X84558095Y-41169580D01*
X84558095Y-41169580D02*
X84605714Y-41217200D01*
X84605714Y-41217200D02*
X84700952Y-41264819D01*
X84700952Y-41264819D02*
X84891428Y-41264819D01*
X84891428Y-41264819D02*
X84986666Y-41217200D01*
X84986666Y-41217200D02*
X85034285Y-41169580D01*
X85034285Y-41169580D02*
X85081904Y-41074342D01*
X85081904Y-41074342D02*
X85081904Y-40883866D01*
X85081904Y-40883866D02*
X85034285Y-40788628D01*
X85034285Y-40788628D02*
X84986666Y-40741009D01*
X84986666Y-40741009D02*
X84891428Y-40693390D01*
X27433628Y-83413690D02*
X27909819Y-83413690D01*
X26909819Y-83747023D02*
X27433628Y-83413690D01*
X27433628Y-83413690D02*
X26909819Y-83080357D01*
X27909819Y-82223214D02*
X27909819Y-82794642D01*
X27909819Y-82508928D02*
X26909819Y-82508928D01*
X26909819Y-82508928D02*
X27052676Y-82604166D01*
X27052676Y-82604166D02*
X27147914Y-82699404D01*
X27147914Y-82699404D02*
X27195533Y-82794642D01*
X87534761Y-46245057D02*
X87439523Y-46197438D01*
X87439523Y-46197438D02*
X87344285Y-46102200D01*
X87344285Y-46102200D02*
X87201428Y-45959342D01*
X87201428Y-45959342D02*
X87106190Y-45911723D01*
X87106190Y-45911723D02*
X87010952Y-45911723D01*
X87058571Y-46149819D02*
X86963333Y-46102200D01*
X86963333Y-46102200D02*
X86868095Y-46006961D01*
X86868095Y-46006961D02*
X86820476Y-45816485D01*
X86820476Y-45816485D02*
X86820476Y-45483152D01*
X86820476Y-45483152D02*
X86868095Y-45292676D01*
X86868095Y-45292676D02*
X86963333Y-45197438D01*
X86963333Y-45197438D02*
X87058571Y-45149819D01*
X87058571Y-45149819D02*
X87249047Y-45149819D01*
X87249047Y-45149819D02*
X87344285Y-45197438D01*
X87344285Y-45197438D02*
X87439523Y-45292676D01*
X87439523Y-45292676D02*
X87487142Y-45483152D01*
X87487142Y-45483152D02*
X87487142Y-45816485D01*
X87487142Y-45816485D02*
X87439523Y-46006961D01*
X87439523Y-46006961D02*
X87344285Y-46102200D01*
X87344285Y-46102200D02*
X87249047Y-46149819D01*
X87249047Y-46149819D02*
X87058571Y-46149819D01*
X87868095Y-45245057D02*
X87915714Y-45197438D01*
X87915714Y-45197438D02*
X88010952Y-45149819D01*
X88010952Y-45149819D02*
X88249047Y-45149819D01*
X88249047Y-45149819D02*
X88344285Y-45197438D01*
X88344285Y-45197438D02*
X88391904Y-45245057D01*
X88391904Y-45245057D02*
X88439523Y-45340295D01*
X88439523Y-45340295D02*
X88439523Y-45435533D01*
X88439523Y-45435533D02*
X88391904Y-45578390D01*
X88391904Y-45578390D02*
X87820476Y-46149819D01*
X87820476Y-46149819D02*
X88439523Y-46149819D01*
X60753929Y-88220891D02*
X60420596Y-87744700D01*
X60182501Y-88220891D02*
X60182501Y-87220891D01*
X60182501Y-87220891D02*
X60563453Y-87220891D01*
X60563453Y-87220891D02*
X60658691Y-87268510D01*
X60658691Y-87268510D02*
X60706310Y-87316129D01*
X60706310Y-87316129D02*
X60753929Y-87411367D01*
X60753929Y-87411367D02*
X60753929Y-87554224D01*
X60753929Y-87554224D02*
X60706310Y-87649462D01*
X60706310Y-87649462D02*
X60658691Y-87697081D01*
X60658691Y-87697081D02*
X60563453Y-87744700D01*
X60563453Y-87744700D02*
X60182501Y-87744700D01*
X61706310Y-88220891D02*
X61134882Y-88220891D01*
X61420596Y-88220891D02*
X61420596Y-87220891D01*
X61420596Y-87220891D02*
X61325358Y-87363748D01*
X61325358Y-87363748D02*
X61230120Y-87458986D01*
X61230120Y-87458986D02*
X61134882Y-87506605D01*
X62087263Y-87316129D02*
X62134882Y-87268510D01*
X62134882Y-87268510D02*
X62230120Y-87220891D01*
X62230120Y-87220891D02*
X62468215Y-87220891D01*
X62468215Y-87220891D02*
X62563453Y-87268510D01*
X62563453Y-87268510D02*
X62611072Y-87316129D01*
X62611072Y-87316129D02*
X62658691Y-87411367D01*
X62658691Y-87411367D02*
X62658691Y-87506605D01*
X62658691Y-87506605D02*
X62611072Y-87649462D01*
X62611072Y-87649462D02*
X62039644Y-88220891D01*
X62039644Y-88220891D02*
X62658691Y-88220891D01*
X23165952Y-82097557D02*
X23213571Y-82049938D01*
X23213571Y-82049938D02*
X23308809Y-82002319D01*
X23308809Y-82002319D02*
X23546904Y-82002319D01*
X23546904Y-82002319D02*
X23642142Y-82049938D01*
X23642142Y-82049938D02*
X23689761Y-82097557D01*
X23689761Y-82097557D02*
X23737380Y-82192795D01*
X23737380Y-82192795D02*
X23737380Y-82288033D01*
X23737380Y-82288033D02*
X23689761Y-82430890D01*
X23689761Y-82430890D02*
X23118333Y-83002319D01*
X23118333Y-83002319D02*
X23737380Y-83002319D01*
X24118333Y-82097557D02*
X24165952Y-82049938D01*
X24165952Y-82049938D02*
X24261190Y-82002319D01*
X24261190Y-82002319D02*
X24499285Y-82002319D01*
X24499285Y-82002319D02*
X24594523Y-82049938D01*
X24594523Y-82049938D02*
X24642142Y-82097557D01*
X24642142Y-82097557D02*
X24689761Y-82192795D01*
X24689761Y-82192795D02*
X24689761Y-82288033D01*
X24689761Y-82288033D02*
X24642142Y-82430890D01*
X24642142Y-82430890D02*
X24070714Y-83002319D01*
X24070714Y-83002319D02*
X24689761Y-83002319D01*
X25546904Y-82335652D02*
X25546904Y-83002319D01*
X25118333Y-82335652D02*
X25118333Y-82859461D01*
X25118333Y-82859461D02*
X25165952Y-82954700D01*
X25165952Y-82954700D02*
X25261190Y-83002319D01*
X25261190Y-83002319D02*
X25404047Y-83002319D01*
X25404047Y-83002319D02*
X25499285Y-82954700D01*
X25499285Y-82954700D02*
X25546904Y-82907080D01*
X26356428Y-82478509D02*
X26023095Y-82478509D01*
X26023095Y-83002319D02*
X26023095Y-82002319D01*
X26023095Y-82002319D02*
X26499285Y-82002319D01*
X26832619Y-82097557D02*
X26880238Y-82049938D01*
X26880238Y-82049938D02*
X26975476Y-82002319D01*
X26975476Y-82002319D02*
X27213571Y-82002319D01*
X27213571Y-82002319D02*
X27308809Y-82049938D01*
X27308809Y-82049938D02*
X27356428Y-82097557D01*
X27356428Y-82097557D02*
X27404047Y-82192795D01*
X27404047Y-82192795D02*
X27404047Y-82288033D01*
X27404047Y-82288033D02*
X27356428Y-82430890D01*
X27356428Y-82430890D02*
X26785000Y-83002319D01*
X26785000Y-83002319D02*
X27404047Y-83002319D01*
X94551667Y-93947200D02*
X94694524Y-93994819D01*
X94694524Y-93994819D02*
X94932619Y-93994819D01*
X94932619Y-93994819D02*
X95027857Y-93947200D01*
X95027857Y-93947200D02*
X95075476Y-93899580D01*
X95075476Y-93899580D02*
X95123095Y-93804342D01*
X95123095Y-93804342D02*
X95123095Y-93709104D01*
X95123095Y-93709104D02*
X95075476Y-93613866D01*
X95075476Y-93613866D02*
X95027857Y-93566247D01*
X95027857Y-93566247D02*
X94932619Y-93518628D01*
X94932619Y-93518628D02*
X94742143Y-93471009D01*
X94742143Y-93471009D02*
X94646905Y-93423390D01*
X94646905Y-93423390D02*
X94599286Y-93375771D01*
X94599286Y-93375771D02*
X94551667Y-93280533D01*
X94551667Y-93280533D02*
X94551667Y-93185295D01*
X94551667Y-93185295D02*
X94599286Y-93090057D01*
X94599286Y-93090057D02*
X94646905Y-93042438D01*
X94646905Y-93042438D02*
X94742143Y-92994819D01*
X94742143Y-92994819D02*
X94980238Y-92994819D01*
X94980238Y-92994819D02*
X95123095Y-93042438D01*
X95456429Y-92994819D02*
X95694524Y-93994819D01*
X95694524Y-93994819D02*
X95885000Y-93280533D01*
X95885000Y-93280533D02*
X96075476Y-93994819D01*
X96075476Y-93994819D02*
X96313572Y-92994819D01*
X96599286Y-92994819D02*
X97218333Y-92994819D01*
X97218333Y-92994819D02*
X96885000Y-93375771D01*
X96885000Y-93375771D02*
X97027857Y-93375771D01*
X97027857Y-93375771D02*
X97123095Y-93423390D01*
X97123095Y-93423390D02*
X97170714Y-93471009D01*
X97170714Y-93471009D02*
X97218333Y-93566247D01*
X97218333Y-93566247D02*
X97218333Y-93804342D01*
X97218333Y-93804342D02*
X97170714Y-93899580D01*
X97170714Y-93899580D02*
X97123095Y-93947200D01*
X97123095Y-93947200D02*
X97027857Y-93994819D01*
X97027857Y-93994819D02*
X96742143Y-93994819D01*
X96742143Y-93994819D02*
X96646905Y-93947200D01*
X96646905Y-93947200D02*
X96599286Y-93899580D01*
X101504761Y-45885057D02*
X101409523Y-45837438D01*
X101409523Y-45837438D02*
X101314285Y-45742200D01*
X101314285Y-45742200D02*
X101171428Y-45599342D01*
X101171428Y-45599342D02*
X101076190Y-45551723D01*
X101076190Y-45551723D02*
X100980952Y-45551723D01*
X101028571Y-45789819D02*
X100933333Y-45742200D01*
X100933333Y-45742200D02*
X100838095Y-45646961D01*
X100838095Y-45646961D02*
X100790476Y-45456485D01*
X100790476Y-45456485D02*
X100790476Y-45123152D01*
X100790476Y-45123152D02*
X100838095Y-44932676D01*
X100838095Y-44932676D02*
X100933333Y-44837438D01*
X100933333Y-44837438D02*
X101028571Y-44789819D01*
X101028571Y-44789819D02*
X101219047Y-44789819D01*
X101219047Y-44789819D02*
X101314285Y-44837438D01*
X101314285Y-44837438D02*
X101409523Y-44932676D01*
X101409523Y-44932676D02*
X101457142Y-45123152D01*
X101457142Y-45123152D02*
X101457142Y-45456485D01*
X101457142Y-45456485D02*
X101409523Y-45646961D01*
X101409523Y-45646961D02*
X101314285Y-45742200D01*
X101314285Y-45742200D02*
X101219047Y-45789819D01*
X101219047Y-45789819D02*
X101028571Y-45789819D01*
X101790476Y-44789819D02*
X102409523Y-44789819D01*
X102409523Y-44789819D02*
X102076190Y-45170771D01*
X102076190Y-45170771D02*
X102219047Y-45170771D01*
X102219047Y-45170771D02*
X102314285Y-45218390D01*
X102314285Y-45218390D02*
X102361904Y-45266009D01*
X102361904Y-45266009D02*
X102409523Y-45361247D01*
X102409523Y-45361247D02*
X102409523Y-45599342D01*
X102409523Y-45599342D02*
X102361904Y-45694580D01*
X102361904Y-45694580D02*
X102314285Y-45742200D01*
X102314285Y-45742200D02*
X102219047Y-45789819D01*
X102219047Y-45789819D02*
X101933333Y-45789819D01*
X101933333Y-45789819D02*
X101838095Y-45742200D01*
X101838095Y-45742200D02*
X101790476Y-45694580D01*
X108099819Y-72999404D02*
X108909342Y-72999404D01*
X108909342Y-72999404D02*
X109004580Y-72951785D01*
X109004580Y-72951785D02*
X109052200Y-72904166D01*
X109052200Y-72904166D02*
X109099819Y-72808928D01*
X109099819Y-72808928D02*
X109099819Y-72618452D01*
X109099819Y-72618452D02*
X109052200Y-72523214D01*
X109052200Y-72523214D02*
X109004580Y-72475595D01*
X109004580Y-72475595D02*
X108909342Y-72427976D01*
X108909342Y-72427976D02*
X108099819Y-72427976D01*
X108099819Y-71475595D02*
X108099819Y-71951785D01*
X108099819Y-71951785D02*
X108576009Y-71999404D01*
X108576009Y-71999404D02*
X108528390Y-71951785D01*
X108528390Y-71951785D02*
X108480771Y-71856547D01*
X108480771Y-71856547D02*
X108480771Y-71618452D01*
X108480771Y-71618452D02*
X108528390Y-71523214D01*
X108528390Y-71523214D02*
X108576009Y-71475595D01*
X108576009Y-71475595D02*
X108671247Y-71427976D01*
X108671247Y-71427976D02*
X108909342Y-71427976D01*
X108909342Y-71427976D02*
X109004580Y-71475595D01*
X109004580Y-71475595D02*
X109052200Y-71523214D01*
X109052200Y-71523214D02*
X109099819Y-71618452D01*
X109099819Y-71618452D02*
X109099819Y-71856547D01*
X109099819Y-71856547D02*
X109052200Y-71951785D01*
X109052200Y-71951785D02*
X109004580Y-71999404D01*
X114204761Y-46245057D02*
X114109523Y-46197438D01*
X114109523Y-46197438D02*
X114014285Y-46102200D01*
X114014285Y-46102200D02*
X113871428Y-45959342D01*
X113871428Y-45959342D02*
X113776190Y-45911723D01*
X113776190Y-45911723D02*
X113680952Y-45911723D01*
X113728571Y-46149819D02*
X113633333Y-46102200D01*
X113633333Y-46102200D02*
X113538095Y-46006961D01*
X113538095Y-46006961D02*
X113490476Y-45816485D01*
X113490476Y-45816485D02*
X113490476Y-45483152D01*
X113490476Y-45483152D02*
X113538095Y-45292676D01*
X113538095Y-45292676D02*
X113633333Y-45197438D01*
X113633333Y-45197438D02*
X113728571Y-45149819D01*
X113728571Y-45149819D02*
X113919047Y-45149819D01*
X113919047Y-45149819D02*
X114014285Y-45197438D01*
X114014285Y-45197438D02*
X114109523Y-45292676D01*
X114109523Y-45292676D02*
X114157142Y-45483152D01*
X114157142Y-45483152D02*
X114157142Y-45816485D01*
X114157142Y-45816485D02*
X114109523Y-46006961D01*
X114109523Y-46006961D02*
X114014285Y-46102200D01*
X114014285Y-46102200D02*
X113919047Y-46149819D01*
X113919047Y-46149819D02*
X113728571Y-46149819D01*
X115014285Y-45483152D02*
X115014285Y-46149819D01*
X114776190Y-45102200D02*
X114538095Y-45816485D01*
X114538095Y-45816485D02*
X115157142Y-45816485D01*
X74199761Y-46245057D02*
X74104523Y-46197438D01*
X74104523Y-46197438D02*
X74009285Y-46102200D01*
X74009285Y-46102200D02*
X73866428Y-45959342D01*
X73866428Y-45959342D02*
X73771190Y-45911723D01*
X73771190Y-45911723D02*
X73675952Y-45911723D01*
X73723571Y-46149819D02*
X73628333Y-46102200D01*
X73628333Y-46102200D02*
X73533095Y-46006961D01*
X73533095Y-46006961D02*
X73485476Y-45816485D01*
X73485476Y-45816485D02*
X73485476Y-45483152D01*
X73485476Y-45483152D02*
X73533095Y-45292676D01*
X73533095Y-45292676D02*
X73628333Y-45197438D01*
X73628333Y-45197438D02*
X73723571Y-45149819D01*
X73723571Y-45149819D02*
X73914047Y-45149819D01*
X73914047Y-45149819D02*
X74009285Y-45197438D01*
X74009285Y-45197438D02*
X74104523Y-45292676D01*
X74104523Y-45292676D02*
X74152142Y-45483152D01*
X74152142Y-45483152D02*
X74152142Y-45816485D01*
X74152142Y-45816485D02*
X74104523Y-46006961D01*
X74104523Y-46006961D02*
X74009285Y-46102200D01*
X74009285Y-46102200D02*
X73914047Y-46149819D01*
X73914047Y-46149819D02*
X73723571Y-46149819D01*
X75104523Y-46149819D02*
X74533095Y-46149819D01*
X74818809Y-46149819D02*
X74818809Y-45149819D01*
X74818809Y-45149819D02*
X74723571Y-45292676D01*
X74723571Y-45292676D02*
X74628333Y-45387914D01*
X74628333Y-45387914D02*
X74533095Y-45435533D01*
X81429819Y-72999404D02*
X82239342Y-72999404D01*
X82239342Y-72999404D02*
X82334580Y-72951785D01*
X82334580Y-72951785D02*
X82382200Y-72904166D01*
X82382200Y-72904166D02*
X82429819Y-72808928D01*
X82429819Y-72808928D02*
X82429819Y-72618452D01*
X82429819Y-72618452D02*
X82382200Y-72523214D01*
X82382200Y-72523214D02*
X82334580Y-72475595D01*
X82334580Y-72475595D02*
X82239342Y-72427976D01*
X82239342Y-72427976D02*
X81429819Y-72427976D01*
X81429819Y-72047023D02*
X81429819Y-71427976D01*
X81429819Y-71427976D02*
X81810771Y-71761309D01*
X81810771Y-71761309D02*
X81810771Y-71618452D01*
X81810771Y-71618452D02*
X81858390Y-71523214D01*
X81858390Y-71523214D02*
X81906009Y-71475595D01*
X81906009Y-71475595D02*
X82001247Y-71427976D01*
X82001247Y-71427976D02*
X82239342Y-71427976D01*
X82239342Y-71427976D02*
X82334580Y-71475595D01*
X82334580Y-71475595D02*
X82382200Y-71523214D01*
X82382200Y-71523214D02*
X82429819Y-71618452D01*
X82429819Y-71618452D02*
X82429819Y-71904166D01*
X82429819Y-71904166D02*
X82382200Y-71999404D01*
X82382200Y-71999404D02*
X82334580Y-72047023D01*
X58912142Y-98562319D02*
X58578809Y-98086128D01*
X58340714Y-98562319D02*
X58340714Y-97562319D01*
X58340714Y-97562319D02*
X58721666Y-97562319D01*
X58721666Y-97562319D02*
X58816904Y-97609938D01*
X58816904Y-97609938D02*
X58864523Y-97657557D01*
X58864523Y-97657557D02*
X58912142Y-97752795D01*
X58912142Y-97752795D02*
X58912142Y-97895652D01*
X58912142Y-97895652D02*
X58864523Y-97990890D01*
X58864523Y-97990890D02*
X58816904Y-98038509D01*
X58816904Y-98038509D02*
X58721666Y-98086128D01*
X58721666Y-98086128D02*
X58340714Y-98086128D01*
X59864523Y-98562319D02*
X59293095Y-98562319D01*
X59578809Y-98562319D02*
X59578809Y-97562319D01*
X59578809Y-97562319D02*
X59483571Y-97705176D01*
X59483571Y-97705176D02*
X59388333Y-97800414D01*
X59388333Y-97800414D02*
X59293095Y-97848033D01*
X60483571Y-97562319D02*
X60578809Y-97562319D01*
X60578809Y-97562319D02*
X60674047Y-97609938D01*
X60674047Y-97609938D02*
X60721666Y-97657557D01*
X60721666Y-97657557D02*
X60769285Y-97752795D01*
X60769285Y-97752795D02*
X60816904Y-97943271D01*
X60816904Y-97943271D02*
X60816904Y-98181366D01*
X60816904Y-98181366D02*
X60769285Y-98371842D01*
X60769285Y-98371842D02*
X60721666Y-98467080D01*
X60721666Y-98467080D02*
X60674047Y-98514700D01*
X60674047Y-98514700D02*
X60578809Y-98562319D01*
X60578809Y-98562319D02*
X60483571Y-98562319D01*
X60483571Y-98562319D02*
X60388333Y-98514700D01*
X60388333Y-98514700D02*
X60340714Y-98467080D01*
X60340714Y-98467080D02*
X60293095Y-98371842D01*
X60293095Y-98371842D02*
X60245476Y-98181366D01*
X60245476Y-98181366D02*
X60245476Y-97943271D01*
X60245476Y-97943271D02*
X60293095Y-97752795D01*
X60293095Y-97752795D02*
X60340714Y-97657557D01*
X60340714Y-97657557D02*
X60388333Y-97609938D01*
X60388333Y-97609938D02*
X60483571Y-97562319D01*
X57618333Y-48249819D02*
X57285000Y-47773628D01*
X57046905Y-48249819D02*
X57046905Y-47249819D01*
X57046905Y-47249819D02*
X57427857Y-47249819D01*
X57427857Y-47249819D02*
X57523095Y-47297438D01*
X57523095Y-47297438D02*
X57570714Y-47345057D01*
X57570714Y-47345057D02*
X57618333Y-47440295D01*
X57618333Y-47440295D02*
X57618333Y-47583152D01*
X57618333Y-47583152D02*
X57570714Y-47678390D01*
X57570714Y-47678390D02*
X57523095Y-47726009D01*
X57523095Y-47726009D02*
X57427857Y-47773628D01*
X57427857Y-47773628D02*
X57046905Y-47773628D01*
X57999286Y-47345057D02*
X58046905Y-47297438D01*
X58046905Y-47297438D02*
X58142143Y-47249819D01*
X58142143Y-47249819D02*
X58380238Y-47249819D01*
X58380238Y-47249819D02*
X58475476Y-47297438D01*
X58475476Y-47297438D02*
X58523095Y-47345057D01*
X58523095Y-47345057D02*
X58570714Y-47440295D01*
X58570714Y-47440295D02*
X58570714Y-47535533D01*
X58570714Y-47535533D02*
X58523095Y-47678390D01*
X58523095Y-47678390D02*
X57951667Y-48249819D01*
X57951667Y-48249819D02*
X58570714Y-48249819D01*
X55102142Y-79047319D02*
X54768809Y-78571128D01*
X54530714Y-79047319D02*
X54530714Y-78047319D01*
X54530714Y-78047319D02*
X54911666Y-78047319D01*
X54911666Y-78047319D02*
X55006904Y-78094938D01*
X55006904Y-78094938D02*
X55054523Y-78142557D01*
X55054523Y-78142557D02*
X55102142Y-78237795D01*
X55102142Y-78237795D02*
X55102142Y-78380652D01*
X55102142Y-78380652D02*
X55054523Y-78475890D01*
X55054523Y-78475890D02*
X55006904Y-78523509D01*
X55006904Y-78523509D02*
X54911666Y-78571128D01*
X54911666Y-78571128D02*
X54530714Y-78571128D01*
X56054523Y-79047319D02*
X55483095Y-79047319D01*
X55768809Y-79047319D02*
X55768809Y-78047319D01*
X55768809Y-78047319D02*
X55673571Y-78190176D01*
X55673571Y-78190176D02*
X55578333Y-78285414D01*
X55578333Y-78285414D02*
X55483095Y-78333033D01*
X56911666Y-78380652D02*
X56911666Y-79047319D01*
X56673571Y-77999700D02*
X56435476Y-78713985D01*
X56435476Y-78713985D02*
X57054523Y-78713985D01*
X97012142Y-42682319D02*
X96678809Y-42206128D01*
X96440714Y-42682319D02*
X96440714Y-41682319D01*
X96440714Y-41682319D02*
X96821666Y-41682319D01*
X96821666Y-41682319D02*
X96916904Y-41729938D01*
X96916904Y-41729938D02*
X96964523Y-41777557D01*
X96964523Y-41777557D02*
X97012142Y-41872795D01*
X97012142Y-41872795D02*
X97012142Y-42015652D01*
X97012142Y-42015652D02*
X96964523Y-42110890D01*
X96964523Y-42110890D02*
X96916904Y-42158509D01*
X96916904Y-42158509D02*
X96821666Y-42206128D01*
X96821666Y-42206128D02*
X96440714Y-42206128D01*
X97964523Y-42682319D02*
X97393095Y-42682319D01*
X97678809Y-42682319D02*
X97678809Y-41682319D01*
X97678809Y-41682319D02*
X97583571Y-41825176D01*
X97583571Y-41825176D02*
X97488333Y-41920414D01*
X97488333Y-41920414D02*
X97393095Y-41968033D01*
X98440714Y-42682319D02*
X98631190Y-42682319D01*
X98631190Y-42682319D02*
X98726428Y-42634700D01*
X98726428Y-42634700D02*
X98774047Y-42587080D01*
X98774047Y-42587080D02*
X98869285Y-42444223D01*
X98869285Y-42444223D02*
X98916904Y-42253747D01*
X98916904Y-42253747D02*
X98916904Y-41872795D01*
X98916904Y-41872795D02*
X98869285Y-41777557D01*
X98869285Y-41777557D02*
X98821666Y-41729938D01*
X98821666Y-41729938D02*
X98726428Y-41682319D01*
X98726428Y-41682319D02*
X98535952Y-41682319D01*
X98535952Y-41682319D02*
X98440714Y-41729938D01*
X98440714Y-41729938D02*
X98393095Y-41777557D01*
X98393095Y-41777557D02*
X98345476Y-41872795D01*
X98345476Y-41872795D02*
X98345476Y-42110890D01*
X98345476Y-42110890D02*
X98393095Y-42206128D01*
X98393095Y-42206128D02*
X98440714Y-42253747D01*
X98440714Y-42253747D02*
X98535952Y-42301366D01*
X98535952Y-42301366D02*
X98726428Y-42301366D01*
X98726428Y-42301366D02*
X98821666Y-42253747D01*
X98821666Y-42253747D02*
X98869285Y-42206128D01*
X98869285Y-42206128D02*
X98916904Y-42110890D01*
X97012142Y-41117319D02*
X96678809Y-40641128D01*
X96440714Y-41117319D02*
X96440714Y-40117319D01*
X96440714Y-40117319D02*
X96821666Y-40117319D01*
X96821666Y-40117319D02*
X96916904Y-40164938D01*
X96916904Y-40164938D02*
X96964523Y-40212557D01*
X96964523Y-40212557D02*
X97012142Y-40307795D01*
X97012142Y-40307795D02*
X97012142Y-40450652D01*
X97012142Y-40450652D02*
X96964523Y-40545890D01*
X96964523Y-40545890D02*
X96916904Y-40593509D01*
X96916904Y-40593509D02*
X96821666Y-40641128D01*
X96821666Y-40641128D02*
X96440714Y-40641128D01*
X97393095Y-40212557D02*
X97440714Y-40164938D01*
X97440714Y-40164938D02*
X97535952Y-40117319D01*
X97535952Y-40117319D02*
X97774047Y-40117319D01*
X97774047Y-40117319D02*
X97869285Y-40164938D01*
X97869285Y-40164938D02*
X97916904Y-40212557D01*
X97916904Y-40212557D02*
X97964523Y-40307795D01*
X97964523Y-40307795D02*
X97964523Y-40403033D01*
X97964523Y-40403033D02*
X97916904Y-40545890D01*
X97916904Y-40545890D02*
X97345476Y-41117319D01*
X97345476Y-41117319D02*
X97964523Y-41117319D01*
X98583571Y-40117319D02*
X98678809Y-40117319D01*
X98678809Y-40117319D02*
X98774047Y-40164938D01*
X98774047Y-40164938D02*
X98821666Y-40212557D01*
X98821666Y-40212557D02*
X98869285Y-40307795D01*
X98869285Y-40307795D02*
X98916904Y-40498271D01*
X98916904Y-40498271D02*
X98916904Y-40736366D01*
X98916904Y-40736366D02*
X98869285Y-40926842D01*
X98869285Y-40926842D02*
X98821666Y-41022080D01*
X98821666Y-41022080D02*
X98774047Y-41069700D01*
X98774047Y-41069700D02*
X98678809Y-41117319D01*
X98678809Y-41117319D02*
X98583571Y-41117319D01*
X98583571Y-41117319D02*
X98488333Y-41069700D01*
X98488333Y-41069700D02*
X98440714Y-41022080D01*
X98440714Y-41022080D02*
X98393095Y-40926842D01*
X98393095Y-40926842D02*
X98345476Y-40736366D01*
X98345476Y-40736366D02*
X98345476Y-40498271D01*
X98345476Y-40498271D02*
X98393095Y-40307795D01*
X98393095Y-40307795D02*
X98440714Y-40212557D01*
X98440714Y-40212557D02*
X98488333Y-40164938D01*
X98488333Y-40164938D02*
X98583571Y-40117319D01*
X35209819Y-54776666D02*
X34733628Y-55109999D01*
X35209819Y-55348094D02*
X34209819Y-55348094D01*
X34209819Y-55348094D02*
X34209819Y-54967142D01*
X34209819Y-54967142D02*
X34257438Y-54871904D01*
X34257438Y-54871904D02*
X34305057Y-54824285D01*
X34305057Y-54824285D02*
X34400295Y-54776666D01*
X34400295Y-54776666D02*
X34543152Y-54776666D01*
X34543152Y-54776666D02*
X34638390Y-54824285D01*
X34638390Y-54824285D02*
X34686009Y-54871904D01*
X34686009Y-54871904D02*
X34733628Y-54967142D01*
X34733628Y-54967142D02*
X34733628Y-55348094D01*
X34209819Y-54443332D02*
X34209819Y-53824285D01*
X34209819Y-53824285D02*
X34590771Y-54157618D01*
X34590771Y-54157618D02*
X34590771Y-54014761D01*
X34590771Y-54014761D02*
X34638390Y-53919523D01*
X34638390Y-53919523D02*
X34686009Y-53871904D01*
X34686009Y-53871904D02*
X34781247Y-53824285D01*
X34781247Y-53824285D02*
X35019342Y-53824285D01*
X35019342Y-53824285D02*
X35114580Y-53871904D01*
X35114580Y-53871904D02*
X35162200Y-53919523D01*
X35162200Y-53919523D02*
X35209819Y-54014761D01*
X35209819Y-54014761D02*
X35209819Y-54300475D01*
X35209819Y-54300475D02*
X35162200Y-54395713D01*
X35162200Y-54395713D02*
X35114580Y-54443332D01*
X20574819Y-108265833D02*
X21289104Y-108265833D01*
X21289104Y-108265833D02*
X21431961Y-108313452D01*
X21431961Y-108313452D02*
X21527200Y-108408690D01*
X21527200Y-108408690D02*
X21574819Y-108551547D01*
X21574819Y-108551547D02*
X21574819Y-108646785D01*
X20670057Y-107837261D02*
X20622438Y-107789642D01*
X20622438Y-107789642D02*
X20574819Y-107694404D01*
X20574819Y-107694404D02*
X20574819Y-107456309D01*
X20574819Y-107456309D02*
X20622438Y-107361071D01*
X20622438Y-107361071D02*
X20670057Y-107313452D01*
X20670057Y-107313452D02*
X20765295Y-107265833D01*
X20765295Y-107265833D02*
X20860533Y-107265833D01*
X20860533Y-107265833D02*
X21003390Y-107313452D01*
X21003390Y-107313452D02*
X21574819Y-107884880D01*
X21574819Y-107884880D02*
X21574819Y-107265833D01*
X58785716Y-81054463D02*
X58452383Y-80578272D01*
X58214288Y-81054463D02*
X58214288Y-80054463D01*
X58214288Y-80054463D02*
X58595240Y-80054463D01*
X58595240Y-80054463D02*
X58690478Y-80102082D01*
X58690478Y-80102082D02*
X58738097Y-80149701D01*
X58738097Y-80149701D02*
X58785716Y-80244939D01*
X58785716Y-80244939D02*
X58785716Y-80387796D01*
X58785716Y-80387796D02*
X58738097Y-80483034D01*
X58738097Y-80483034D02*
X58690478Y-80530653D01*
X58690478Y-80530653D02*
X58595240Y-80578272D01*
X58595240Y-80578272D02*
X58214288Y-80578272D01*
X59738097Y-81054463D02*
X59166669Y-81054463D01*
X59452383Y-81054463D02*
X59452383Y-80054463D01*
X59452383Y-80054463D02*
X59357145Y-80197320D01*
X59357145Y-80197320D02*
X59261907Y-80292558D01*
X59261907Y-80292558D02*
X59166669Y-80340177D01*
X60071431Y-80054463D02*
X60690478Y-80054463D01*
X60690478Y-80054463D02*
X60357145Y-80435415D01*
X60357145Y-80435415D02*
X60500002Y-80435415D01*
X60500002Y-80435415D02*
X60595240Y-80483034D01*
X60595240Y-80483034D02*
X60642859Y-80530653D01*
X60642859Y-80530653D02*
X60690478Y-80625891D01*
X60690478Y-80625891D02*
X60690478Y-80863986D01*
X60690478Y-80863986D02*
X60642859Y-80959224D01*
X60642859Y-80959224D02*
X60595240Y-81006844D01*
X60595240Y-81006844D02*
X60500002Y-81054463D01*
X60500002Y-81054463D02*
X60214288Y-81054463D01*
X60214288Y-81054463D02*
X60119050Y-81006844D01*
X60119050Y-81006844D02*
X60071431Y-80959224D01*
X69842142Y-41264819D02*
X69508809Y-40788628D01*
X69270714Y-41264819D02*
X69270714Y-40264819D01*
X69270714Y-40264819D02*
X69651666Y-40264819D01*
X69651666Y-40264819D02*
X69746904Y-40312438D01*
X69746904Y-40312438D02*
X69794523Y-40360057D01*
X69794523Y-40360057D02*
X69842142Y-40455295D01*
X69842142Y-40455295D02*
X69842142Y-40598152D01*
X69842142Y-40598152D02*
X69794523Y-40693390D01*
X69794523Y-40693390D02*
X69746904Y-40741009D01*
X69746904Y-40741009D02*
X69651666Y-40788628D01*
X69651666Y-40788628D02*
X69270714Y-40788628D01*
X70794523Y-41264819D02*
X70223095Y-41264819D01*
X70508809Y-41264819D02*
X70508809Y-40264819D01*
X70508809Y-40264819D02*
X70413571Y-40407676D01*
X70413571Y-40407676D02*
X70318333Y-40502914D01*
X70318333Y-40502914D02*
X70223095Y-40550533D01*
X71651666Y-40264819D02*
X71461190Y-40264819D01*
X71461190Y-40264819D02*
X71365952Y-40312438D01*
X71365952Y-40312438D02*
X71318333Y-40360057D01*
X71318333Y-40360057D02*
X71223095Y-40502914D01*
X71223095Y-40502914D02*
X71175476Y-40693390D01*
X71175476Y-40693390D02*
X71175476Y-41074342D01*
X71175476Y-41074342D02*
X71223095Y-41169580D01*
X71223095Y-41169580D02*
X71270714Y-41217200D01*
X71270714Y-41217200D02*
X71365952Y-41264819D01*
X71365952Y-41264819D02*
X71556428Y-41264819D01*
X71556428Y-41264819D02*
X71651666Y-41217200D01*
X71651666Y-41217200D02*
X71699285Y-41169580D01*
X71699285Y-41169580D02*
X71746904Y-41074342D01*
X71746904Y-41074342D02*
X71746904Y-40836247D01*
X71746904Y-40836247D02*
X71699285Y-40741009D01*
X71699285Y-40741009D02*
X71651666Y-40693390D01*
X71651666Y-40693390D02*
X71556428Y-40645771D01*
X71556428Y-40645771D02*
X71365952Y-40645771D01*
X71365952Y-40645771D02*
X71270714Y-40693390D01*
X71270714Y-40693390D02*
X71223095Y-40741009D01*
X71223095Y-40741009D02*
X71175476Y-40836247D01*
X83177142Y-42829819D02*
X82843809Y-42353628D01*
X82605714Y-42829819D02*
X82605714Y-41829819D01*
X82605714Y-41829819D02*
X82986666Y-41829819D01*
X82986666Y-41829819D02*
X83081904Y-41877438D01*
X83081904Y-41877438D02*
X83129523Y-41925057D01*
X83129523Y-41925057D02*
X83177142Y-42020295D01*
X83177142Y-42020295D02*
X83177142Y-42163152D01*
X83177142Y-42163152D02*
X83129523Y-42258390D01*
X83129523Y-42258390D02*
X83081904Y-42306009D01*
X83081904Y-42306009D02*
X82986666Y-42353628D01*
X82986666Y-42353628D02*
X82605714Y-42353628D01*
X84129523Y-42829819D02*
X83558095Y-42829819D01*
X83843809Y-42829819D02*
X83843809Y-41829819D01*
X83843809Y-41829819D02*
X83748571Y-41972676D01*
X83748571Y-41972676D02*
X83653333Y-42067914D01*
X83653333Y-42067914D02*
X83558095Y-42115533D01*
X84462857Y-41829819D02*
X85129523Y-41829819D01*
X85129523Y-41829819D02*
X84700952Y-42829819D01*
D11*
%TO.C,SW2*%
X75875000Y-97040000D02*
X75875000Y-98540000D01*
X77125000Y-101040000D02*
X81625000Y-101040000D01*
X81625000Y-94540000D02*
X77125000Y-94540000D01*
X82875000Y-98540000D02*
X82875000Y-97040000D01*
%TO.C,U2*%
X70320000Y-74607500D02*
X71930000Y-74607500D01*
X69840000Y-74257500D02*
X82560000Y-74257500D01*
X74457200Y-69523700D02*
X78140200Y-69523700D01*
X74279400Y-64621500D02*
X74279400Y-69523700D01*
X78318000Y-64621500D02*
X78318000Y-69523700D01*
X74457200Y-64519900D02*
X78140200Y-64519900D01*
X74279400Y-59084300D02*
X74279400Y-64443700D01*
X78318000Y-59084300D02*
X78318000Y-64443700D01*
X74457200Y-59058900D02*
X78140200Y-59058900D01*
X69840000Y-55037500D02*
X69840000Y-74257500D01*
X69840000Y-55037500D02*
X82560000Y-55037500D01*
X82560000Y-55037500D02*
X82560000Y-74257500D01*
X79662467Y-69709967D02*
G75*
G03*
X78717533Y-69709967I-472467J0D01*
G01*
X78717533Y-69709967D02*
G75*
G03*
X79662467Y-69709967I472467J0D01*
G01*
%TO.C,U1*%
X36720000Y-49470000D02*
X36720000Y-100390000D01*
X36720000Y-100390000D02*
X49640000Y-100390000D01*
X42180000Y-49470000D02*
X36720000Y-49470000D01*
X49640000Y-49470000D02*
X44180000Y-49470000D01*
X49640000Y-100390000D02*
X49640000Y-49470000D01*
X42180000Y-49470000D02*
G75*
G03*
X44180000Y-49470000I1000000J0D01*
G01*
%TO.C,J1*%
X35560000Y-47625000D02*
X35560000Y-46355000D01*
X36830000Y-47625000D02*
X35560000Y-47625000D01*
X38990000Y-45312071D02*
X38990000Y-44915000D01*
X39750000Y-45312071D02*
X39750000Y-44915000D01*
X41530000Y-45312071D02*
X41530000Y-44915000D01*
X42290000Y-45312071D02*
X42290000Y-44915000D01*
X44070000Y-45312071D02*
X44070000Y-44915000D01*
X44830000Y-45312071D02*
X44830000Y-44915000D01*
X46610000Y-45312071D02*
X46610000Y-44915000D01*
X47370000Y-45312071D02*
X47370000Y-44915000D01*
X49150000Y-45312071D02*
X49150000Y-44915000D01*
X49910000Y-45312071D02*
X49910000Y-44915000D01*
X36450000Y-45245000D02*
X36450000Y-44915000D01*
X37210000Y-45245000D02*
X37210000Y-44915000D01*
X35500000Y-44915000D02*
X50860000Y-44915000D01*
X38100000Y-44915000D02*
X38100000Y-42255000D01*
X40640000Y-44915000D02*
X40640000Y-42255000D01*
X43180000Y-44915000D02*
X43180000Y-42255000D01*
X45720000Y-44915000D02*
X45720000Y-42255000D01*
X48260000Y-44915000D02*
X48260000Y-42255000D01*
X50860000Y-44915000D02*
X50860000Y-42255000D01*
X35500000Y-42255000D02*
X35500000Y-44915000D01*
X36450000Y-42255000D02*
X36450000Y-36255000D01*
X36510000Y-42255000D02*
X36510000Y-36255000D01*
X36630000Y-42255000D02*
X36630000Y-36255000D01*
X36750000Y-42255000D02*
X36750000Y-36255000D01*
X36870000Y-42255000D02*
X36870000Y-36255000D01*
X36990000Y-42255000D02*
X36990000Y-36255000D01*
X37110000Y-42255000D02*
X37110000Y-36255000D01*
X38990000Y-42255000D02*
X38990000Y-36255000D01*
X41530000Y-42255000D02*
X41530000Y-36255000D01*
X44070000Y-42255000D02*
X44070000Y-36255000D01*
X46610000Y-42255000D02*
X46610000Y-36255000D01*
X49150000Y-42255000D02*
X49150000Y-36255000D01*
X50860000Y-42255000D02*
X35500000Y-42255000D01*
X36450000Y-36255000D02*
X37210000Y-36255000D01*
X37210000Y-36255000D02*
X37210000Y-42255000D01*
X38990000Y-36255000D02*
X39750000Y-36255000D01*
X39750000Y-36255000D02*
X39750000Y-42255000D01*
X41530000Y-36255000D02*
X42290000Y-36255000D01*
X42290000Y-36255000D02*
X42290000Y-42255000D01*
X44070000Y-36255000D02*
X44830000Y-36255000D01*
X44830000Y-36255000D02*
X44830000Y-42255000D01*
X46610000Y-36255000D02*
X47370000Y-36255000D01*
X47370000Y-36255000D02*
X47370000Y-42255000D01*
X49150000Y-36255000D02*
X49910000Y-36255000D01*
X49910000Y-36255000D02*
X49910000Y-42255000D01*
%TO.C,R8*%
X56285000Y-103892500D02*
X56285000Y-104222500D01*
X56285000Y-106632500D02*
X56285000Y-106302500D01*
X62825000Y-103892500D02*
X56285000Y-103892500D01*
X62825000Y-104222500D02*
X62825000Y-103892500D01*
X62825000Y-106302500D02*
X62825000Y-106632500D01*
X62825000Y-106632500D02*
X56285000Y-106632500D01*
%TO.C,R1*%
X54515000Y-51970000D02*
X61055000Y-51970000D01*
X54515000Y-52300000D02*
X54515000Y-51970000D01*
X54515000Y-54380000D02*
X54515000Y-54710000D01*
X54515000Y-54710000D02*
X61055000Y-54710000D01*
X61055000Y-51970000D02*
X61055000Y-52300000D01*
X61055000Y-54710000D02*
X61055000Y-54380000D01*
%TO.C,SW1*%
X28265000Y-54725000D02*
X28265000Y-53225000D01*
X27015000Y-50725000D02*
X22515000Y-50725000D01*
X22515000Y-57225000D02*
X27015000Y-57225000D01*
X21265000Y-53225000D02*
X21265000Y-54725000D01*
%TO.C,R5*%
X99020000Y-105997500D02*
X92480000Y-105997500D01*
X99020000Y-105667500D02*
X99020000Y-105997500D01*
X99020000Y-103587500D02*
X99020000Y-103257500D01*
X99020000Y-103257500D02*
X92480000Y-103257500D01*
X92480000Y-105997500D02*
X92480000Y-105667500D01*
X92480000Y-103257500D02*
X92480000Y-103587500D01*
%TO.C,R7*%
X62825000Y-103457500D02*
X56285000Y-103457500D01*
X62825000Y-103127500D02*
X62825000Y-103457500D01*
X62825000Y-101047500D02*
X62825000Y-100717500D01*
X62825000Y-100717500D02*
X56285000Y-100717500D01*
X56285000Y-103457500D02*
X56285000Y-103127500D01*
X56285000Y-100717500D02*
X56285000Y-101047500D01*
%TO.C,R9*%
X62825000Y-100282500D02*
X56285000Y-100282500D01*
X62825000Y-99952500D02*
X62825000Y-100282500D01*
X62825000Y-97872500D02*
X62825000Y-97542500D01*
X62825000Y-97542500D02*
X56285000Y-97542500D01*
X56285000Y-100282500D02*
X56285000Y-99952500D01*
X56285000Y-97542500D02*
X56285000Y-97872500D01*
%TO.C,22uF1*%
X25914000Y-85862500D02*
X24656000Y-85862500D01*
X25914000Y-84022500D02*
X24656000Y-84022500D01*
%TO.C,U4*%
X108750000Y-54932500D02*
X107140000Y-54932500D01*
X109230000Y-55282500D02*
X96510000Y-55282500D01*
X104612800Y-60016300D02*
X100929800Y-60016300D01*
X104790600Y-64918500D02*
X104790600Y-60016300D01*
X100752000Y-64918500D02*
X100752000Y-60016300D01*
X104612800Y-65020100D02*
X100929800Y-65020100D01*
X104790600Y-70455700D02*
X104790600Y-65096300D01*
X100752000Y-70455700D02*
X100752000Y-65096300D01*
X104612800Y-70481100D02*
X100929800Y-70481100D01*
X109230000Y-74502500D02*
X109230000Y-55282500D01*
X109230000Y-74502500D02*
X96510000Y-74502500D01*
X96510000Y-74502500D02*
X96510000Y-55282500D01*
X100352467Y-59830033D02*
G75*
G03*
X99407533Y-59830033I-472467J0D01*
G01*
X99407533Y-59830033D02*
G75*
G03*
X100352467Y-59830033I472467J0D01*
G01*
%TO.C,R22*%
X113760000Y-44550000D02*
X113760000Y-44220000D01*
X113760000Y-41810000D02*
X113760000Y-42140000D01*
X107220000Y-44550000D02*
X113760000Y-44550000D01*
X107220000Y-44220000D02*
X107220000Y-44550000D01*
X107220000Y-42140000D02*
X107220000Y-41810000D01*
X107220000Y-41810000D02*
X113760000Y-41810000D01*
%TO.C,R4*%
X115740000Y-105997500D02*
X109200000Y-105997500D01*
X115740000Y-105667500D02*
X115740000Y-105997500D01*
X115740000Y-103587500D02*
X115740000Y-103257500D01*
X115740000Y-103257500D02*
X109200000Y-103257500D01*
X109200000Y-105997500D02*
X109200000Y-105667500D01*
X109200000Y-103257500D02*
X109200000Y-103587500D01*
%TO.C,R6*%
X82510000Y-105997500D02*
X75970000Y-105997500D01*
X82510000Y-105667500D02*
X82510000Y-105997500D01*
X82510000Y-103587500D02*
X82510000Y-103257500D01*
X82510000Y-103257500D02*
X75970000Y-103257500D01*
X75970000Y-105997500D02*
X75970000Y-105667500D01*
X75970000Y-103257500D02*
X75970000Y-103587500D01*
%TO.C,SW4*%
X108895000Y-97040000D02*
X108895000Y-98540000D01*
X110145000Y-101040000D02*
X114645000Y-101040000D01*
X114645000Y-94540000D02*
X110145000Y-94540000D01*
X115895000Y-98540000D02*
X115895000Y-97040000D01*
%TO.C,R11*%
X62825000Y-86312500D02*
X56285000Y-86312500D01*
X62825000Y-85982500D02*
X62825000Y-86312500D01*
X62825000Y-83902500D02*
X62825000Y-83572500D01*
X62825000Y-83572500D02*
X56285000Y-83572500D01*
X56285000Y-86312500D02*
X56285000Y-85982500D01*
X56285000Y-83572500D02*
X56285000Y-83902500D01*
%TO.C,R15*%
X67080000Y-38635000D02*
X67080000Y-38965000D01*
X67080000Y-41375000D02*
X67080000Y-41045000D01*
X73620000Y-38635000D02*
X67080000Y-38635000D01*
X73620000Y-38965000D02*
X73620000Y-38635000D01*
X73620000Y-41045000D02*
X73620000Y-41375000D01*
X73620000Y-41375000D02*
X67080000Y-41375000D01*
%TO.C,R21*%
X107220000Y-38635000D02*
X107220000Y-38965000D01*
X107220000Y-41375000D02*
X107220000Y-41045000D01*
X113760000Y-38635000D02*
X107220000Y-38635000D01*
X113760000Y-38965000D02*
X113760000Y-38635000D01*
X113760000Y-41045000D02*
X113760000Y-41375000D01*
X113760000Y-41375000D02*
X107220000Y-41375000D01*
%TO.C,R18*%
X87090000Y-44550000D02*
X87090000Y-44220000D01*
X87090000Y-41810000D02*
X87090000Y-42140000D01*
X80550000Y-44550000D02*
X87090000Y-44550000D01*
X80550000Y-44220000D02*
X80550000Y-44550000D01*
X80550000Y-42140000D02*
X80550000Y-41810000D01*
X80550000Y-41810000D02*
X87090000Y-41810000D01*
%TO.C,Y1*%
X28455000Y-86137500D02*
X28455000Y-79737500D01*
X33505000Y-86137500D02*
X33505000Y-79737500D01*
X28455000Y-86137500D02*
G75*
G03*
X33505000Y-86137500I2525000J0D01*
G01*
X33505000Y-79737500D02*
G75*
G03*
X28455000Y-79737500I-2525000J0D01*
G01*
%TO.C,Q2*%
X89468478Y-51093478D02*
G75*
G03*
X87630000Y-46655000I-1838478J1838478D01*
G01*
X87630000Y-46655000D02*
G75*
G03*
X85791522Y-51093478I0J-2600000D01*
G01*
X85830000Y-51105000D02*
X89430000Y-51105000D01*
%TO.C,R12*%
X62761787Y-82956072D02*
X56221787Y-82956072D01*
X62761787Y-82626072D02*
X62761787Y-82956072D01*
X62761787Y-80546072D02*
X62761787Y-80216072D01*
X62761787Y-80216072D02*
X56221787Y-80216072D01*
X56221787Y-82956072D02*
X56221787Y-82626072D01*
X56221787Y-80216072D02*
X56221787Y-80546072D01*
%TO.C,22uF2*%
X25914000Y-81417500D02*
X24656000Y-81417500D01*
X25914000Y-79577500D02*
X24656000Y-79577500D01*
%TO.C,SW3*%
X92385000Y-97040000D02*
X92385000Y-98540000D01*
X93635000Y-101040000D02*
X98135000Y-101040000D01*
X98135000Y-94540000D02*
X93635000Y-94540000D01*
X99385000Y-98540000D02*
X99385000Y-97040000D01*
%TO.C,Q3*%
X103438478Y-50733478D02*
G75*
G03*
X101600000Y-46295000I-1838478J1838478D01*
G01*
X101600000Y-46295000D02*
G75*
G03*
X99761522Y-50733478I0J-2600000D01*
G01*
X99800000Y-50745000D02*
X103400000Y-50745000D01*
%TO.C,U5*%
X110325000Y-74607500D02*
X111935000Y-74607500D01*
X109845000Y-74257500D02*
X122565000Y-74257500D01*
X114462200Y-69523700D02*
X118145200Y-69523700D01*
X114284400Y-64621500D02*
X114284400Y-69523700D01*
X118323000Y-64621500D02*
X118323000Y-69523700D01*
X114462200Y-64519900D02*
X118145200Y-64519900D01*
X114284400Y-59084300D02*
X114284400Y-64443700D01*
X118323000Y-59084300D02*
X118323000Y-64443700D01*
X114462200Y-59058900D02*
X118145200Y-59058900D01*
X109845000Y-55037500D02*
X109845000Y-74257500D01*
X109845000Y-55037500D02*
X122565000Y-55037500D01*
X122565000Y-55037500D02*
X122565000Y-74257500D01*
X119667467Y-69709967D02*
G75*
G03*
X118722533Y-69709967I-472467J0D01*
G01*
X118722533Y-69709967D02*
G75*
G03*
X119667467Y-69709967I472467J0D01*
G01*
%TO.C,Q4*%
X116138478Y-51093478D02*
G75*
G03*
X114300000Y-46655000I-1838478J1838478D01*
G01*
X114300000Y-46655000D02*
G75*
G03*
X112461522Y-51093478I0J-2600000D01*
G01*
X112500000Y-51105000D02*
X116100000Y-51105000D01*
%TO.C,Q1*%
X76133478Y-51093478D02*
G75*
G03*
X74295000Y-46655000I-1838478J1838478D01*
G01*
X74295000Y-46655000D02*
G75*
G03*
X72456522Y-51093478I0J-2600000D01*
G01*
X72495000Y-51105000D02*
X76095000Y-51105000D01*
%TO.C,U3*%
X83655000Y-74607500D02*
X85265000Y-74607500D01*
X83175000Y-74257500D02*
X95895000Y-74257500D01*
X87792200Y-69523700D02*
X91475200Y-69523700D01*
X87614400Y-64621500D02*
X87614400Y-69523700D01*
X91653000Y-64621500D02*
X91653000Y-69523700D01*
X87792200Y-64519900D02*
X91475200Y-64519900D01*
X87614400Y-59084300D02*
X87614400Y-64443700D01*
X91653000Y-59084300D02*
X91653000Y-64443700D01*
X87792200Y-59058900D02*
X91475200Y-59058900D01*
X83175000Y-55037500D02*
X83175000Y-74257500D01*
X83175000Y-55037500D02*
X95895000Y-55037500D01*
X95895000Y-55037500D02*
X95895000Y-74257500D01*
X92997467Y-69709967D02*
G75*
G03*
X92052533Y-69709967I-472467J0D01*
G01*
X92052533Y-69709967D02*
G75*
G03*
X92997467Y-69709967I472467J0D01*
G01*
%TO.C,R10*%
X62825000Y-97107500D02*
X56285000Y-97107500D01*
X62825000Y-96777500D02*
X62825000Y-97107500D01*
X62825000Y-94697500D02*
X62825000Y-94367500D01*
X62825000Y-94367500D02*
X56285000Y-94367500D01*
X56285000Y-97107500D02*
X56285000Y-96777500D01*
X56285000Y-94367500D02*
X56285000Y-94697500D01*
%TO.C,R2*%
X54515000Y-48795000D02*
X61055000Y-48795000D01*
X54515000Y-49125000D02*
X54515000Y-48795000D01*
X54515000Y-51205000D02*
X54515000Y-51535000D01*
X54515000Y-51535000D02*
X61055000Y-51535000D01*
X61055000Y-48795000D02*
X61055000Y-49125000D01*
X61055000Y-51535000D02*
X61055000Y-51205000D01*
%TO.C,R14*%
X62825000Y-76152500D02*
X56285000Y-76152500D01*
X62825000Y-75822500D02*
X62825000Y-76152500D01*
X62825000Y-73742500D02*
X62825000Y-73412500D01*
X62825000Y-73412500D02*
X56285000Y-73412500D01*
X56285000Y-76152500D02*
X56285000Y-75822500D01*
X56285000Y-73412500D02*
X56285000Y-73742500D01*
%TO.C,R19*%
X94385000Y-38487500D02*
X94385000Y-38817500D01*
X94385000Y-41227500D02*
X94385000Y-40897500D01*
X100925000Y-38487500D02*
X94385000Y-38487500D01*
X100925000Y-38817500D02*
X100925000Y-38487500D01*
X100925000Y-40897500D02*
X100925000Y-41227500D01*
X100925000Y-41227500D02*
X94385000Y-41227500D01*
%TO.C,R20*%
X100925000Y-44402500D02*
X100925000Y-44072500D01*
X100925000Y-41662500D02*
X100925000Y-41992500D01*
X94385000Y-44402500D02*
X100925000Y-44402500D01*
X94385000Y-44072500D02*
X94385000Y-44402500D01*
X94385000Y-41992500D02*
X94385000Y-41662500D01*
X94385000Y-41662500D02*
X100925000Y-41662500D01*
%TO.C,R3*%
X33755000Y-51340000D02*
X33755000Y-57880000D01*
X33425000Y-51340000D02*
X33755000Y-51340000D01*
X31345000Y-51340000D02*
X31015000Y-51340000D01*
X31015000Y-51340000D02*
X31015000Y-57880000D01*
X33755000Y-57880000D02*
X33425000Y-57880000D01*
X31015000Y-57880000D02*
X31345000Y-57880000D01*
%TO.C,J2*%
X21820000Y-113512500D02*
X21820000Y-111512500D01*
X23070000Y-113512500D02*
X21820000Y-113512500D01*
X22210000Y-113122500D02*
X29680000Y-113122500D01*
X29680000Y-113122500D02*
X29680000Y-102742500D01*
X23170000Y-111972500D02*
X23170000Y-108972500D01*
X24520000Y-111972500D02*
X24520000Y-111222500D01*
X28820000Y-111972500D02*
X24520000Y-111972500D01*
X24170000Y-111722500D02*
X23170000Y-111972500D01*
X24170000Y-111222500D02*
X24170000Y-111722500D01*
X24520000Y-111222500D02*
X24170000Y-111222500D01*
X28820000Y-111222500D02*
X28820000Y-111972500D01*
X24170000Y-109722500D02*
X24520000Y-109722500D01*
X24520000Y-109722500D02*
X24520000Y-108972500D01*
X24170000Y-109222500D02*
X24170000Y-109722500D01*
X23170000Y-108972500D02*
X24170000Y-109222500D01*
X24520000Y-108972500D02*
X28820000Y-108972500D01*
X28820000Y-108972500D02*
X28820000Y-109722500D01*
X23170000Y-106892500D02*
X23170000Y-103892500D01*
X24520000Y-106892500D02*
X24520000Y-106142500D01*
X28820000Y-106892500D02*
X24520000Y-106892500D01*
X24170000Y-106642500D02*
X23170000Y-106892500D01*
X24170000Y-106142500D02*
X24170000Y-106642500D01*
X24520000Y-106142500D02*
X24170000Y-106142500D01*
X28820000Y-106142500D02*
X28820000Y-106892500D01*
X24170000Y-104642500D02*
X24520000Y-104642500D01*
X24520000Y-104642500D02*
X24520000Y-103892500D01*
X24170000Y-104142500D02*
X24170000Y-104642500D01*
X23170000Y-103892500D02*
X24170000Y-104142500D01*
X24520000Y-103892500D02*
X28820000Y-103892500D01*
X28820000Y-103892500D02*
X28820000Y-104642500D01*
X22210000Y-102742500D02*
X22210000Y-113122500D01*
X29680000Y-102742500D02*
X22210000Y-102742500D01*
X28819845Y-109722853D02*
G75*
G03*
X28820000Y-111222500I1700155J-749647D01*
G01*
X28819845Y-104642853D02*
G75*
G03*
X28820000Y-106142500I1700155J-749647D01*
G01*
%TO.C,R13*%
X62698574Y-79599644D02*
X56158574Y-79599644D01*
X62698574Y-79269644D02*
X62698574Y-79599644D01*
X62698574Y-77189644D02*
X62698574Y-76859644D01*
X62698574Y-76859644D02*
X56158574Y-76859644D01*
X56158574Y-79599644D02*
X56158574Y-79269644D01*
X56158574Y-76859644D02*
X56158574Y-77189644D01*
%TO.C,R16*%
X73755000Y-44550000D02*
X73755000Y-44220000D01*
X73755000Y-41810000D02*
X73755000Y-42140000D01*
X67215000Y-44550000D02*
X73755000Y-44550000D01*
X67215000Y-44220000D02*
X67215000Y-44550000D01*
X67215000Y-42140000D02*
X67215000Y-41810000D01*
X67215000Y-41810000D02*
X73755000Y-41810000D01*
%TO.C,R17*%
X80550000Y-38635000D02*
X80550000Y-38965000D01*
X80550000Y-41375000D02*
X80550000Y-41045000D01*
X87090000Y-38635000D02*
X80550000Y-38635000D01*
X87090000Y-38965000D02*
X87090000Y-38635000D01*
X87090000Y-41045000D02*
X87090000Y-41375000D01*
X87090000Y-41375000D02*
X80550000Y-41375000D01*
%TD*%
M02*
