M48
; DRILL file {KiCad 7.0.11+dfsg-1build4} date mar 31 mar 2026 18:24:41
; FORMAT={-:-/ absolute / metric / decimal}
; #@! TF.CreationDate,2026-03-31T18:24:41-06:00
; #@! TF.GenerationSoftware,Kicad,Pcbnew,7.0.11+dfsg-1build4
; #@! TF.FileFunction,MixedPlating,1,2
FMAT,2
METRIC
; #@! TA.AperFunction,Plated,PTH,ComponentDrill
T1C0.750
; #@! TA.AperFunction,Plated,PTH,ComponentDrill
T2C0.800
; #@! TA.AperFunction,Plated,PTH,ComponentDrill
T3C1.000
; #@! TA.AperFunction,Plated,PTH,ComponentDrill
T4C1.100
; #@! TA.AperFunction,Plated,PTH,ComponentDrill
T5C1.200
%
G90
G05
T1
X73.025Y-49.255
X74.295Y-49.255
X75.565Y-49.255
X86.36Y-49.255
X87.63Y-49.255
X88.9Y-49.255
X100.33Y-48.895
X101.6Y-48.895
X102.87Y-48.895
X113.03Y-49.255
X114.3Y-49.255
X115.57Y-49.255
T2
X24.035Y-80.498
X24.035Y-84.942
X26.535Y-80.498
X26.535Y-84.942
X30.98Y-80.498
X30.98Y-85.377
X32.385Y-50.8
X32.385Y-58.42
X35.56Y-50.8
X35.56Y-53.34
X35.56Y-55.88
X35.56Y-58.42
X35.56Y-60.96
X35.56Y-63.5
X35.56Y-66.04
X35.56Y-68.58
X35.56Y-71.12
X35.56Y-73.66
X35.56Y-76.2
X35.56Y-78.74
X35.56Y-81.28
X35.56Y-83.82
X35.56Y-86.36
X35.56Y-88.9
X35.56Y-91.44
X35.56Y-93.98
X35.56Y-96.52
X35.56Y-99.06
X50.8Y-50.8
X50.8Y-53.34
X50.8Y-55.88
X50.8Y-58.42
X50.8Y-60.96
X50.8Y-63.5
X50.8Y-66.04
X50.8Y-68.58
X50.8Y-71.12
X50.8Y-73.66
X50.8Y-76.2
X50.8Y-78.74
X50.8Y-81.28
X50.8Y-83.82
X50.8Y-86.36
X50.8Y-88.9
X50.8Y-91.44
X50.8Y-93.98
X50.8Y-96.52
X50.8Y-99.06
X53.975Y-50.165
X53.975Y-53.34
X55.619Y-78.23
X55.682Y-81.586
X55.745Y-74.782
X55.745Y-84.942
X55.745Y-95.737
X55.745Y-98.912
X55.745Y-102.087
X55.745Y-105.262
X61.595Y-50.165
X61.595Y-53.34
X63.239Y-78.23
X63.302Y-81.586
X63.365Y-74.782
X63.365Y-84.942
X63.365Y-95.737
X63.365Y-98.912
X63.365Y-102.087
X63.365Y-105.262
X66.54Y-40.005
X66.675Y-43.18
X71.12Y-57.027
X71.12Y-72.267
X73.66Y-57.027
X73.66Y-72.267
X74.16Y-40.005
X74.295Y-43.18
X75.43Y-104.627
X76.2Y-57.027
X76.2Y-72.267
X78.74Y-57.027
X78.74Y-72.267
X80.01Y-40.005
X80.01Y-43.18
X81.28Y-57.027
X81.28Y-72.267
X83.05Y-104.627
X84.455Y-57.027
X84.455Y-72.267
X86.995Y-57.027
X86.995Y-72.267
X87.63Y-40.005
X87.63Y-43.18
X89.535Y-57.027
X89.535Y-72.267
X91.94Y-104.627
X92.075Y-57.027
X92.075Y-72.267
X93.845Y-39.858
X93.845Y-43.032
X94.615Y-57.027
X94.615Y-72.267
X97.79Y-57.273
X97.79Y-72.513
X99.56Y-104.627
X100.33Y-57.273
X100.33Y-72.513
X101.465Y-39.858
X101.465Y-43.032
X102.87Y-57.273
X102.87Y-72.513
X105.41Y-57.273
X105.41Y-72.513
X106.68Y-40.005
X106.68Y-43.18
X107.95Y-57.273
X107.95Y-72.513
X108.66Y-104.627
X111.125Y-57.027
X111.125Y-72.267
X113.665Y-57.027
X113.665Y-72.267
X114.3Y-40.005
X114.3Y-43.18
X116.205Y-57.027
X116.205Y-72.267
X116.28Y-104.627
X118.745Y-57.027
X118.745Y-72.267
X121.285Y-57.027
X121.285Y-72.267
T3
X36.83Y-46.355
X39.37Y-46.355
X41.91Y-46.355
X44.45Y-46.355
X46.99Y-46.355
X49.53Y-46.355
T4
X21.515Y-51.725
X21.515Y-56.225
X28.015Y-51.725
X28.015Y-56.225
X76.125Y-95.54
X76.125Y-100.04
X82.625Y-95.54
X82.625Y-100.04
X92.635Y-95.54
X92.635Y-100.04
X99.135Y-95.54
X99.135Y-100.04
X109.145Y-95.54
X109.145Y-100.04
X115.645Y-95.54
X115.645Y-100.04
T5
X26.67Y-105.392
X26.67Y-110.472
M30
