%TF.GenerationSoftware,KiCad,Pcbnew,7.0.11+dfsg-1build4*%
%TF.CreationDate,2026-03-31T18:10:33-06:00*%
%TF.ProjectId,digital_clock,64696769-7461-46c5-9f63-6c6f636b2e6b,rev?*%
%TF.SameCoordinates,Original*%
%TF.FileFunction,Soldermask,Top*%
%TF.FilePolarity,Negative*%
%FSLAX46Y46*%
G04 Gerber Fmt 4.6, Leading zero omitted, Abs format (unit mm)*
G04 Created by KiCad (PCBNEW 7.0.11+dfsg-1build4) date 2026-03-31 18:10:33*
%MOMM*%
%LPD*%
G01*
G04 APERTURE LIST*
G04 Aperture macros list*
%AMRoundRect*
0 Rectangle with rounded corners*
0 $1 Rounding radius*
0 $2 $3 $4 $5 $6 $7 $8 $9 X,Y pos of 4 corners*
0 Add a 4 corners polygon primitive as box body*
4,1,4,$2,$3,$4,$5,$6,$7,$8,$9,$2,$3,0*
0 Add four circle primitives for the rounded corners*
1,1,$1+$1,$2,$3*
1,1,$1+$1,$4,$5*
1,1,$1+$1,$6,$7*
1,1,$1+$1,$8,$9*
0 Add four rect primitives between the rounded corners*
20,1,$1+$1,$2,$3,$4,$5,0*
20,1,$1+$1,$4,$5,$6,$7,0*
20,1,$1+$1,$6,$7,$8,$9,0*
20,1,$1+$1,$8,$9,$2,$3,0*%
G04 Aperture macros list end*
%ADD10C,2.000000*%
%ADD11R,1.600000X1.600000*%
%ADD12C,1.600000*%
%ADD13O,1.600000X1.600000*%
%ADD14R,1.700000X1.700000*%
%ADD15O,1.700000X1.700000*%
%ADD16C,1.500000*%
%ADD17O,1.050000X1.500000*%
%ADD18R,1.050000X1.500000*%
%ADD19RoundRect,0.250000X1.550000X-0.650000X1.550000X0.650000X-1.550000X0.650000X-1.550000X-0.650000X0*%
%ADD20O,3.600000X1.800000*%
G04 APERTURE END LIST*
D10*
%TO.C,SW2*%
X76125000Y-95540000D03*
X82625000Y-95540000D03*
X76125000Y-100040000D03*
X82625000Y-100040000D03*
%TD*%
D11*
%TO.C,U2*%
X71120000Y-72267500D03*
D12*
X73660000Y-72267500D03*
X76200000Y-72267500D03*
X78740000Y-72267500D03*
X81280000Y-72267500D03*
X81280000Y-57027500D03*
X78740000Y-57027500D03*
X76200000Y-57027500D03*
X73660000Y-57027500D03*
X71120000Y-57027500D03*
%TD*%
D11*
%TO.C,U1*%
X35560000Y-50800000D03*
D13*
X35560000Y-53340000D03*
X35560000Y-55880000D03*
X35560000Y-58420000D03*
X35560000Y-60960000D03*
X35560000Y-63500000D03*
X35560000Y-66040000D03*
X35560000Y-68580000D03*
X35560000Y-71120000D03*
X35560000Y-73660000D03*
X35560000Y-76200000D03*
X35560000Y-78740000D03*
X35560000Y-81280000D03*
X35560000Y-83820000D03*
X35560000Y-86360000D03*
X35560000Y-88900000D03*
X35560000Y-91440000D03*
X35560000Y-93980000D03*
X35560000Y-96520000D03*
X35560000Y-99060000D03*
X50800000Y-99060000D03*
X50800000Y-96520000D03*
X50800000Y-93980000D03*
X50800000Y-91440000D03*
X50800000Y-88900000D03*
X50800000Y-86360000D03*
X50800000Y-83820000D03*
X50800000Y-81280000D03*
X50800000Y-78740000D03*
X50800000Y-76200000D03*
X50800000Y-73660000D03*
X50800000Y-71120000D03*
X50800000Y-68580000D03*
X50800000Y-66040000D03*
X50800000Y-63500000D03*
X50800000Y-60960000D03*
X50800000Y-58420000D03*
X50800000Y-55880000D03*
X50800000Y-53340000D03*
X50800000Y-50800000D03*
%TD*%
D14*
%TO.C,J1*%
X36830000Y-46355000D03*
D15*
X39370000Y-46355000D03*
X41910000Y-46355000D03*
X44450000Y-46355000D03*
X46990000Y-46355000D03*
X49530000Y-46355000D03*
%TD*%
D13*
%TO.C,R8*%
X55745000Y-105262500D03*
D12*
X63365000Y-105262500D03*
%TD*%
%TO.C,R1*%
X53975000Y-53340000D03*
D13*
X61595000Y-53340000D03*
%TD*%
D10*
%TO.C,SW1*%
X28015000Y-56225000D03*
X21515000Y-56225000D03*
X28015000Y-51725000D03*
X21515000Y-51725000D03*
%TD*%
D12*
%TO.C,R5*%
X99560000Y-104627500D03*
D13*
X91940000Y-104627500D03*
%TD*%
D12*
%TO.C,R7*%
X63365000Y-102087500D03*
D13*
X55745000Y-102087500D03*
%TD*%
D12*
%TO.C,R9*%
X63365000Y-98912500D03*
D13*
X55745000Y-98912500D03*
%TD*%
D12*
%TO.C,22uF1*%
X26535000Y-84942500D03*
X24035000Y-84942500D03*
%TD*%
D11*
%TO.C,U4*%
X107950000Y-57272500D03*
D12*
X105410000Y-57272500D03*
X102870000Y-57272500D03*
X100330000Y-57272500D03*
X97790000Y-57272500D03*
X97790000Y-72512500D03*
X100330000Y-72512500D03*
X102870000Y-72512500D03*
X105410000Y-72512500D03*
X107950000Y-72512500D03*
%TD*%
D13*
%TO.C,R22*%
X114300000Y-43180000D03*
D12*
X106680000Y-43180000D03*
%TD*%
%TO.C,R4*%
X116280000Y-104627500D03*
D13*
X108660000Y-104627500D03*
%TD*%
D12*
%TO.C,R6*%
X83050000Y-104627500D03*
D13*
X75430000Y-104627500D03*
%TD*%
D10*
%TO.C,SW4*%
X109145000Y-95540000D03*
X115645000Y-95540000D03*
X109145000Y-100040000D03*
X115645000Y-100040000D03*
%TD*%
D12*
%TO.C,R11*%
X63365000Y-84942500D03*
D13*
X55745000Y-84942500D03*
%TD*%
%TO.C,R15*%
X66540000Y-40005000D03*
D12*
X74160000Y-40005000D03*
%TD*%
D13*
%TO.C,R21*%
X106680000Y-40005000D03*
D12*
X114300000Y-40005000D03*
%TD*%
D13*
%TO.C,R18*%
X87630000Y-43180000D03*
D12*
X80010000Y-43180000D03*
%TD*%
D16*
%TO.C,Y1*%
X30980000Y-85377500D03*
X30980000Y-80497500D03*
%TD*%
D17*
%TO.C,Q2*%
X88900000Y-49255000D03*
X87630000Y-49255000D03*
D18*
X86360000Y-49255000D03*
%TD*%
D12*
%TO.C,R12*%
X63301787Y-81586072D03*
D13*
X55681787Y-81586072D03*
%TD*%
D12*
%TO.C,22uF2*%
X26535000Y-80497500D03*
X24035000Y-80497500D03*
%TD*%
D10*
%TO.C,SW3*%
X92635000Y-95540000D03*
X99135000Y-95540000D03*
X92635000Y-100040000D03*
X99135000Y-100040000D03*
%TD*%
D17*
%TO.C,Q3*%
X102870000Y-48895000D03*
X101600000Y-48895000D03*
D18*
X100330000Y-48895000D03*
%TD*%
D11*
%TO.C,U5*%
X111125000Y-72267500D03*
D12*
X113665000Y-72267500D03*
X116205000Y-72267500D03*
X118745000Y-72267500D03*
X121285000Y-72267500D03*
X121285000Y-57027500D03*
X118745000Y-57027500D03*
X116205000Y-57027500D03*
X113665000Y-57027500D03*
X111125000Y-57027500D03*
%TD*%
D17*
%TO.C,Q4*%
X115570000Y-49255000D03*
X114300000Y-49255000D03*
D18*
X113030000Y-49255000D03*
%TD*%
D17*
%TO.C,Q1*%
X75565000Y-49255000D03*
X74295000Y-49255000D03*
D18*
X73025000Y-49255000D03*
%TD*%
D11*
%TO.C,U3*%
X84455000Y-72267500D03*
D12*
X86995000Y-72267500D03*
X89535000Y-72267500D03*
X92075000Y-72267500D03*
X94615000Y-72267500D03*
X94615000Y-57027500D03*
X92075000Y-57027500D03*
X89535000Y-57027500D03*
X86995000Y-57027500D03*
X84455000Y-57027500D03*
%TD*%
%TO.C,R10*%
X63365000Y-95737500D03*
D13*
X55745000Y-95737500D03*
%TD*%
D12*
%TO.C,R2*%
X53975000Y-50165000D03*
D13*
X61595000Y-50165000D03*
%TD*%
D12*
%TO.C,R14*%
X63365000Y-74782500D03*
D13*
X55745000Y-74782500D03*
%TD*%
%TO.C,R19*%
X93845000Y-39857500D03*
D12*
X101465000Y-39857500D03*
%TD*%
D13*
%TO.C,R20*%
X101465000Y-43032500D03*
D12*
X93845000Y-43032500D03*
%TD*%
%TO.C,R3*%
X32385000Y-50800000D03*
D13*
X32385000Y-58420000D03*
%TD*%
D19*
%TO.C,J2*%
X26670000Y-110472500D03*
D20*
X26670000Y-105392500D03*
%TD*%
D12*
%TO.C,R13*%
X63238574Y-78229644D03*
D13*
X55618574Y-78229644D03*
%TD*%
%TO.C,R16*%
X74295000Y-43180000D03*
D12*
X66675000Y-43180000D03*
%TD*%
D13*
%TO.C,R17*%
X80010000Y-40005000D03*
D12*
X87630000Y-40005000D03*
%TD*%
M02*
